<?xml version="1.0" encoding="UTF-8" standalone="no"?>
<svg
   xmlns:ns2="http://www.iki.fi/pav/software/textext/"
   xmlns:dc="http://purl.org/dc/elements/1.1/"
   xmlns:cc="http://creativecommons.org/ns#"
   xmlns:rdf="http://www.w3.org/1999/02/22-rdf-syntax-ns#"
   xmlns:svg="http://www.w3.org/2000/svg"
   xmlns="http://www.w3.org/2000/svg"
   xmlns:sodipodi="http://sodipodi.sourceforge.net/DTD/sodipodi-0.dtd"
   xmlns:inkscape="http://www.inkscape.org/namespaces/inkscape"
   width="3.5in"
   height="2in"
   viewBox="0 0 88.9 50.8"
   version="1.1"
   id="svg8"
   inkscape:version="1.0.2 (e86c8708, 2021-01-15)"
   sodipodi:docname="diamond.svg">
  <defs
     id="defs2">
    <marker
       style="overflow:visible;"
       id="marker2192"
       refX="0.0"
       refY="0.0"
       orient="auto"
       inkscape:stockid="Arrow1Mend"
       inkscape:isstock="true">
      <path
         transform="scale(0.4) rotate(180) translate(10,0)"
         style="fill-rule:evenodd;stroke:#000000;stroke-width:1pt;stroke-opacity:1;fill:#000000;fill-opacity:1"
         d="M 0.0,0.0 L 5.0,-5.0 L -12.5,0.0 L 5.0,5.0 L 0.0,0.0 z "
         id="path2190" />
    </marker>
    <marker
       style="overflow:visible;"
       id="marker2152"
       refX="0.0"
       refY="0.0"
       orient="auto"
       inkscape:stockid="Arrow1Mend"
       inkscape:isstock="true">
      <path
         transform="scale(0.4) rotate(180) translate(10,0)"
         style="fill-rule:evenodd;stroke:#000000;stroke-width:1pt;stroke-opacity:1;fill:#000000;fill-opacity:1"
         d="M 0.0,0.0 L 5.0,-5.0 L -12.5,0.0 L 5.0,5.0 L 0.0,0.0 z "
         id="path2150" />
    </marker>
    <marker
       style="overflow:visible;"
       id="marker2118"
       refX="0.0"
       refY="0.0"
       orient="auto"
       inkscape:stockid="Arrow1Mend"
       inkscape:isstock="true">
      <path
         transform="scale(0.4) rotate(180) translate(10,0)"
         style="fill-rule:evenodd;stroke:#000000;stroke-width:1pt;stroke-opacity:1;fill:#000000;fill-opacity:1"
         d="M 0.0,0.0 L 5.0,-5.0 L -12.5,0.0 L 5.0,5.0 L 0.0,0.0 z "
         id="path2116" />
    </marker>
    <marker
       style="overflow:visible;"
       id="marker1205"
       refX="0.0"
       refY="0.0"
       orient="auto"
       inkscape:stockid="Arrow1Mend"
       inkscape:isstock="true"
       inkscape:collect="always">
      <path
         transform="scale(0.4) rotate(180) translate(10,0)"
         style="fill-rule:evenodd;stroke:#000000;stroke-width:1pt;stroke-opacity:1;fill:#000000;fill-opacity:1"
         d="M 0.0,0.0 L 5.0,-5.0 L -12.5,0.0 L 5.0,5.0 L 0.0,0.0 z "
         id="path1203" />
    </marker>
    <marker
       style="overflow:visible;"
       id="marker1195"
       refX="0.0"
       refY="0.0"
       orient="auto"
       inkscape:stockid="Arrow1Mend"
       inkscape:isstock="true">
      <path
         transform="scale(0.4) rotate(180) translate(10,0)"
         style="fill-rule:evenodd;stroke:#000000;stroke-width:1pt;stroke-opacity:1;fill:#000000;fill-opacity:1"
         d="M 0.0,0.0 L 5.0,-5.0 L -12.5,0.0 L 5.0,5.0 L 0.0,0.0 z "
         id="path1193" />
    </marker>
    <marker
       style="overflow:visible;"
       id="marker1173"
       refX="0.0"
       refY="0.0"
       orient="auto"
       inkscape:stockid="Arrow1Mend"
       inkscape:isstock="true">
      <path
         transform="scale(0.4) rotate(180) translate(10,0)"
         style="fill-rule:evenodd;stroke:#000000;stroke-width:1pt;stroke-opacity:1;fill:#000000;fill-opacity:1"
         d="M 0.0,0.0 L 5.0,-5.0 L -12.5,0.0 L 5.0,5.0 L 0.0,0.0 z "
         id="path1171" />
    </marker>
  </defs>
  <sodipodi:namedview
     id="base"
     pagecolor="#ffffff"
     bordercolor="#666666"
     borderopacity="1.0"
     inkscape:pageopacity="0.0"
     inkscape:pageshadow="2"
     inkscape:zoom="1.7731268"
     inkscape:cx="195.04679"
     inkscape:cy="83.122335"
     inkscape:document-units="mm"
     inkscape:current-layer="layer1"
     inkscape:document-rotation="0"
     showgrid="false"
     units="in"
     inkscape:window-width="1252"
     inkscape:window-height="803"
     inkscape:window-x="0"
     inkscape:window-y="23"
     inkscape:window-maximized="0" />
  <metadata
     id="metadata5">
    <rdf:RDF>
      <cc:Work
         rdf:about="">
        <dc:format>image/svg+xml</dc:format>
        <dc:type
           rdf:resource="http://purl.org/dc/dcmitype/StillImage" />
        <dc:title></dc:title>
      </cc:Work>
    </rdf:RDF>
  </metadata>
  <g
     inkscape:label="Layer 1"
     inkscape:groupmode="layer"
     id="layer1">
    <circle
       style="fill:none;fill-opacity:0.81;stroke:#000000;stroke-width:0.35277778;paint-order:markers stroke fill;stop-color:#000000;stroke-miterlimit:4;stroke-dasharray:none"
       id="path833"
       cx="19.382071"
       cy="25.4"
       r="14.074118" />
    <circle
       style="fill:#eaeaea;fill-opacity:1;stroke:#000000;stroke-width:0.35277778;paint-order:markers stroke fill;stop-color:#000000;stroke-miterlimit:4;stroke-dasharray:none"
       id="path855"
       cx="44.635056"
       cy="10.53548"
       r="8.122776" />
    <circle
       style="fill:none;fill-opacity:0.81;stroke:#000000;stroke-width:0.35277778;paint-order:markers stroke fill;stop-color:#000000;stroke-miterlimit:4;stroke-dasharray:none"
       id="circle857"
       cx="44.635056"
       cy="40.681477"
       r="8.122776" />
    <circle
       style="fill:none;fill-opacity:0.81;stroke:#000000;stroke-width:0.35277778;paint-order:markers stroke fill;stop-color:#000000;stroke-miterlimit:4;stroke-dasharray:none"
       id="circle881"
       cx="67.957878"
       cy="26.137644"
       r="8.122776" />
    <path
       style="fill:none;stroke:#000000;stroke-width:0.35277778;stroke-linecap:butt;stroke-linejoin:miter;stroke-opacity:1;stroke-miterlimit:4;stroke-dasharray:none;marker-end:url(#marker1173)"
       d="m 30.560941,16.888941 6.433881,-3.377788"
       id="path883" />
    <path
       style="fill:none;stroke:#000000;stroke-width:0.352778;stroke-linecap:butt;stroke-linejoin:miter;stroke-miterlimit:4;stroke-dasharray:none;stroke-opacity:1;marker-end:url(#marker1195)"
       d="m 30.978196,33.345676 5.694932,4.131688"
       id="path885"
       sodipodi:nodetypes="cc" />
    <path
       style="fill:none;stroke:#000000;stroke-width:0.35277778;stroke-linecap:butt;stroke-linejoin:miter;stroke-miterlimit:4;stroke-dasharray:none;stroke-opacity:1;marker-end:url(#marker1205)"
       d="m 33.515067,25.041806 25.998344,0.693723"
       id="path887"
       sodipodi:nodetypes="cc" />
    <g
       transform="matrix(1.7980886,0,0,1.7980886,-48.644597,10.384219)"
       ns2:version="1.3.0"
       ns2:texconverter="pdflatex"
       ns2:pdfconverter="inkscape"
       ns2:text="$\\lozenge \\phi$"
       ns2:preamble="/Users/meiroseconnor/Library/Application Support/org.inkscape.Inkscape/config/inkscape/extensions/textext/default_packages.tex"
       ns2:scale="1.8312341973160358"
       ns2:alignment="middle center"
       ns2:inkscapeversion="1.0.2"
       ns2:jacobian_sqrt="0.646019"
       id="g1374">
      <defs
         id="id-57de7dc3-c796-404a-a20b-741c8bcbc5ba">
        <g
           id="id-a904f192-0bd7-4c79-9d8e-0b5650f151f7">
          <symbol
             overflow="visible"
             id="id-ee512b1f-1eb5-4eba-af2e-f495be739853">
            <path
               style="stroke:none;stroke-width:0"
               d=""
               id="id-bf70144f-95b1-4472-a353-c6600d1e3501" />
          </symbol>
          <symbol
             overflow="visible"
             id="id-b9bc74c1-96bb-49e0-930a-c7acebf984ec">
            <path
               style="stroke:none;stroke-width:0"
               d="m 5.984375,-2.71875 c 0.09375,-0.125 0.09375,-0.140625 0.09375,-0.1875 0,-0.0625 -0.0625,-0.171875 -0.0625,-0.171875 L 3.53125,-6.96875 C 3.484375,-7.0625 3.421875,-7.140625 3.3125,-7.140625 c -0.109375,0 -0.15625,0.078125 -0.21875,0.171875 l -2.453125,3.875 C 0.5625,-2.96875 0.5625,-2.953125 0.5625,-2.90625 c 0,0.0625 0.0625,0.171875 0.0625,0.171875 L 3.09375,1.15625 C 3.15625,1.25 3.203125,1.328125 3.3125,1.328125 3.421875,1.328125 3.484375,1.25 3.53125,1.15625 Z M 1,-2.90625 3.3125,-6.5625 5.640625,-2.90625 3.328125,0.75 H 3.3125 Z m 0,0"
               id="id-186fa0c2-994e-4f0f-9de4-e15706363611" />
          </symbol>
          <symbol
             overflow="visible"
             id="id-f7591bdb-ac9c-4e5a-b3c5-c770fb86919b">
            <path
               style="stroke:none;stroke-width:0"
               d=""
               id="id-e246fd84-ebca-4796-9ae4-c39b7fc4612c" />
          </symbol>
          <symbol
             overflow="visible"
             id="id-6093920d-a021-42b9-9890-dcecf73be9b0">
            <path
               style="stroke:none;stroke-width:0"
               d="m 4.359375,-6.671875 c 0,-0.03125 0.03125,-0.140625 0.03125,-0.140625 0,-0.015625 0,-0.109375 -0.125,-0.109375 -0.09375,0 -0.109375,0.03125 -0.15625,0.203125 L 3.53125,-4.421875 c -1.578125,0.0625 -3.046875,1.375 -3.046875,2.734375 0,0.953125 0.703125,1.734375 1.921875,1.8125 C 2.328125,0.421875 2.25,0.75 2.171875,1.0625 c -0.125,0.46875 -0.21875,0.84375 -0.21875,0.875 0,0.09375 0.078125,0.109375 0.125,0.109375 C 2.125,2.046875 2.140625,2.03125 2.171875,2 2.1875,1.984375 2.25,1.75 2.28125,1.609375 L 2.65625,0.125 c 1.609375,-0.0625 3.0625,-1.40625 3.0625,-2.734375 0,-0.796875 -0.53125,-1.703125 -1.921875,-1.8125 z m -1.90625,6.578125 c -0.59375,-0.03125 -1.3125,-0.390625 -1.3125,-1.375 0,-1.203125 0.859375,-2.59375 2.34375,-2.734375 z m 1.28125,-4.109375 c 0.765625,0.046875 1.328125,0.5 1.328125,1.375 0,1.1875 -0.859375,2.609375 -2.34375,2.734375 z m 0,0"
               id="id-deee5ca3-eefd-4061-96a8-d1d1cb3e67e7" />
          </symbol>
        </g>
      </defs>
      <g
         transform="matrix(0.646019,0,0,0.646019,33.8991,5.30511)"
         ns2:version="1.3.0"
         ns2:texconverter="pdflatex"
         ns2:pdfconverter="inkscape"
         ns2:text="$\\lozenge \\varphi$"
         ns2:preamble="/Users/meiroseconnor/Library/Application Support/org.inkscape.Inkscape/config/inkscape/extensions/textext/default_packages.tex"
         ns2:scale="1.8312341973160358"
         ns2:alignment="middle center"
         ns2:inkscapeversion="1.0.2"
         ns2:jacobian_sqrt="0.646019"
         id="g1581">
        <defs
           id="id-330166b1-f291-45c1-ad3d-50203c01e237">
          <g
             id="id-b072bd9e-43cb-4911-8254-255c7c2bf768">
            <symbol
               overflow="visible"
               id="id-d4ba1096-5636-48d1-97c3-f68561df4aa2">
              <path
                 style="stroke:none;stroke-width:0"
                 d=""
                 id="id-e6744d43-f6c4-45f5-a782-206aeba806d5" />
            </symbol>
            <symbol
               overflow="visible"
               id="id-1230f55f-908a-49fd-855c-d63c957f8309">
              <path
                 style="stroke:none;stroke-width:0"
                 d="m 5.984375,-2.71875 c 0.09375,-0.125 0.09375,-0.140625 0.09375,-0.1875 0,-0.0625 -0.0625,-0.171875 -0.0625,-0.171875 L 3.53125,-6.96875 C 3.484375,-7.0625 3.421875,-7.140625 3.3125,-7.140625 c -0.109375,0 -0.15625,0.078125 -0.21875,0.171875 l -2.453125,3.875 C 0.5625,-2.96875 0.5625,-2.953125 0.5625,-2.90625 c 0,0.0625 0.0625,0.171875 0.0625,0.171875 L 3.09375,1.15625 C 3.15625,1.25 3.203125,1.328125 3.3125,1.328125 3.421875,1.328125 3.484375,1.25 3.53125,1.15625 Z M 1,-2.90625 3.3125,-6.5625 5.640625,-2.90625 3.328125,0.75 H 3.3125 Z m 0,0"
                 id="id-ed0e4dc4-9ba6-41b8-ae2b-1bbac8a73feb" />
            </symbol>
            <symbol
               overflow="visible"
               id="id-1280ad1c-7e43-453f-a144-40cfe0cb7cc0">
              <path
                 style="stroke:none;stroke-width:0"
                 d=""
                 id="id-4295e31e-ae24-49b4-85c3-8c3744f95f5c" />
            </symbol>
            <symbol
               overflow="visible"
               id="id-3193e2fe-8f06-47d1-a091-9a822ca875b6">
              <path
                 style="stroke:none;stroke-width:0"
                 d="M 1.6875,1.6875 C 1.65625,1.828125 1.640625,1.84375 1.640625,1.890625 c 0,0.21875 0.1875,0.28125 0.296875,0.28125 0.046875,0 0.265625,-0.03125 0.359375,-0.265625 C 2.328125,1.828125 2.375,1.5 2.65625,0.09375 c 0.078125,0 0.15625,0.015625 0.328125,0.015625 1.65625,0 3.1875,-1.5625 3.1875,-3.140625 0,-0.78125 -0.390625,-1.375 -1.140625,-1.375 -1.4375,0 -2.046875,1.9375 -2.640625,3.875 C 1.3125,-0.734375 0.75,-1.28125 0.75,-2 c 0,-0.28125 0.234375,-1.375 0.828125,-2.0625 0.09375,-0.09375 0.09375,-0.109375 0.09375,-0.140625 0,-0.03125 -0.03125,-0.09375 -0.125,-0.09375 -0.28125,0 -1.046875,1.453125 -1.046875,2.40625 0,0.9375 0.65625,1.65625 1.71875,1.90625 z m 1.390625,-2.15625 c -0.09375,0 -0.109375,0 -0.1875,-0.015625 -0.125,0 -0.125,0 -0.125,-0.03125 0,-0.015625 0.171875,-0.9375 0.1875,-1.078125 0.3125,-1.28125 1.09375,-2.234375 1.984375,-2.234375 0.6875,0 0.953125,0.53125 0.953125,1.015625 0,1.125 -1.28125,2.34375 -2.8125,2.34375 z m 0,0"
                 id="id-7346ef27-5bce-4f6f-924d-548298b8eb98" />
            </symbol>
          </g>
        </defs>
        <g
           id="id-21ac6f3a-62ef-426d-afee-9e3cfbf0d9a2"
           transform="translate(-149.275,-127.624)">
          <g
             style="fill:#000000;fill-opacity:1"
             id="id-5aeab632-d92d-482f-8c74-82ab3b2ca801">
            <g
               transform="translate(148.712,134.765)"
               id="g1573">
              <path
                 style="stroke:none;stroke-width:0"
                 d="m 5.984375,-2.71875 c 0.09375,-0.125 0.09375,-0.140625 0.09375,-0.1875 0,-0.0625 -0.0625,-0.171875 -0.0625,-0.171875 L 3.53125,-6.96875 C 3.484375,-7.0625 3.421875,-7.140625 3.3125,-7.140625 c -0.109375,0 -0.15625,0.078125 -0.21875,0.171875 l -2.453125,3.875 C 0.5625,-2.96875 0.5625,-2.953125 0.5625,-2.90625 c 0,0.0625 0.0625,0.171875 0.0625,0.171875 L 3.09375,1.15625 C 3.15625,1.25 3.203125,1.328125 3.3125,1.328125 3.421875,1.328125 3.484375,1.25 3.53125,1.15625 Z M 1,-2.90625 3.3125,-6.5625 5.640625,-2.90625 3.328125,0.75 H 3.3125 Z m 0,0"
                 id="id-c0caf8b0-546f-4b48-93c4-a726b66d38f4" />
            </g>
          </g>
          <g
             style="fill:#000000;fill-opacity:1"
             id="id-cb934103-16dd-402f-96d1-e932b5a97074">
            <g
               transform="translate(155.354,134.765)"
               id="g1577">
              <path
                 style="stroke:none;stroke-width:0"
                 d="M 1.6875,1.6875 C 1.65625,1.828125 1.640625,1.84375 1.640625,1.890625 c 0,0.21875 0.1875,0.28125 0.296875,0.28125 0.046875,0 0.265625,-0.03125 0.359375,-0.265625 C 2.328125,1.828125 2.375,1.5 2.65625,0.09375 c 0.078125,0 0.15625,0.015625 0.328125,0.015625 1.65625,0 3.1875,-1.5625 3.1875,-3.140625 0,-0.78125 -0.390625,-1.375 -1.140625,-1.375 -1.4375,0 -2.046875,1.9375 -2.640625,3.875 C 1.3125,-0.734375 0.75,-1.28125 0.75,-2 c 0,-0.28125 0.234375,-1.375 0.828125,-2.0625 0.09375,-0.09375 0.09375,-0.109375 0.09375,-0.140625 0,-0.03125 -0.03125,-0.09375 -0.125,-0.09375 -0.28125,0 -1.046875,1.453125 -1.046875,2.40625 0,0.9375 0.65625,1.65625 1.71875,1.90625 z m 1.390625,-2.15625 c -0.09375,0 -0.109375,0 -0.1875,-0.015625 -0.125,0 -0.125,0 -0.125,-0.03125 0,-0.015625 0.171875,-0.9375 0.1875,-1.078125 0.3125,-1.28125 1.09375,-2.234375 1.984375,-2.234375 0.6875,0 0.953125,0.53125 0.953125,1.015625 0,1.125 -1.28125,2.34375 -2.8125,2.34375 z m 0,0"
                 id="id-d6454fe9-b4b1-4f79-b00b-a16c02b5378b" />
            </g>
          </g>
        </g>
      </g>
    </g>
    <g
       transform="matrix(0.94094215,0,0,0.94094215,42.048511,7.74036)"
       ns2:version="1.3.0"
       ns2:texconverter="pdflatex"
       ns2:pdfconverter="inkscape"
       ns2:text="$\\varphi$"
       ns2:preamble="/Users/meiroseconnor/Library/Application Support/org.inkscape.Inkscape/config/inkscape/extensions/textext/default_packages.tex"
       ns2:scale="1.8312341973160358"
       ns2:alignment="middle center"
       ns2:inkscapeversion="1.0.2"
       ns2:jacobian_sqrt="0.646019"
       id="g1660">
      <defs
         id="id-05e94f96-287f-45b0-b0a5-56c119fbd014">
        <g
           id="id-8564cfd4-82c2-4d02-a651-17d616dad94f">
          <symbol
             overflow="visible"
             id="id-3726828d-012e-45d2-87f9-e211c7780768">
            <path
               style="stroke:none;stroke-width:0"
               d=""
               id="id-27bbd610-f2bf-4dab-b234-20fc2092e33f" />
          </symbol>
          <symbol
             overflow="visible"
             id="id-bc49547d-2377-4b94-a543-6362a1056251">
            <path
               style="stroke:none;stroke-width:0"
               d="M 1.6875,1.6875 C 1.65625,1.828125 1.640625,1.84375 1.640625,1.890625 c 0,0.21875 0.1875,0.28125 0.296875,0.28125 0.046875,0 0.265625,-0.03125 0.359375,-0.265625 C 2.328125,1.828125 2.375,1.5 2.65625,0.09375 c 0.078125,0 0.15625,0.015625 0.328125,0.015625 1.65625,0 3.1875,-1.5625 3.1875,-3.140625 0,-0.78125 -0.390625,-1.375 -1.140625,-1.375 -1.4375,0 -2.046875,1.9375 -2.640625,3.875 C 1.3125,-0.734375 0.75,-1.28125 0.75,-2 c 0,-0.28125 0.234375,-1.375 0.828125,-2.0625 0.09375,-0.09375 0.09375,-0.109375 0.09375,-0.140625 0,-0.03125 -0.03125,-0.09375 -0.125,-0.09375 -0.28125,0 -1.046875,1.453125 -1.046875,2.40625 0,0.9375 0.65625,1.65625 1.71875,1.90625 z m 1.390625,-2.15625 c -0.09375,0 -0.109375,0 -0.1875,-0.015625 -0.125,0 -0.125,0 -0.125,-0.03125 0,-0.015625 0.171875,-0.9375 0.1875,-1.078125 0.3125,-1.28125 1.09375,-2.234375 1.984375,-2.234375 0.6875,0 0.953125,0.53125 0.953125,1.015625 0,1.125 -1.28125,2.34375 -2.8125,2.34375 z m 0,0"
               id="id-cdc28396-f5c2-418b-a11a-15045b6311c8" />
          </symbol>
        </g>
      </defs>
      <g
         id="id-ff796ec1-7629-4f42-8978-983c7fae342d"
         transform="translate(-149.212,-130.359)">
        <g
           style="fill:#000000;fill-opacity:1"
           id="id-9dd50b83-bc2c-4e03-a494-6597395ee533">
          <g
             transform="translate(148.712,134.765)"
             id="g1656">
            <path
               style="stroke:none;stroke-width:0"
               d="M 1.6875,1.6875 C 1.65625,1.828125 1.640625,1.84375 1.640625,1.890625 c 0,0.21875 0.1875,0.28125 0.296875,0.28125 0.046875,0 0.265625,-0.03125 0.359375,-0.265625 C 2.328125,1.828125 2.375,1.5 2.65625,0.09375 c 0.078125,0 0.15625,0.015625 0.328125,0.015625 1.65625,0 3.1875,-1.5625 3.1875,-3.140625 0,-0.78125 -0.390625,-1.375 -1.140625,-1.375 -1.4375,0 -2.046875,1.9375 -2.640625,3.875 C 1.3125,-0.734375 0.75,-1.28125 0.75,-2 c 0,-0.28125 0.234375,-1.375 0.828125,-2.0625 0.09375,-0.09375 0.09375,-0.109375 0.09375,-0.140625 0,-0.03125 -0.03125,-0.09375 -0.125,-0.09375 -0.28125,0 -1.046875,1.453125 -1.046875,2.40625 0,0.9375 0.65625,1.65625 1.71875,1.90625 z m 1.390625,-2.15625 c -0.09375,0 -0.109375,0 -0.1875,-0.015625 -0.125,0 -0.125,0 -0.125,-0.03125 0,-0.015625 0.171875,-0.9375 0.1875,-1.078125 0.3125,-1.28125 1.09375,-2.234375 1.984375,-2.234375 0.6875,0 0.953125,0.53125 0.953125,1.015625 0,1.125 -1.28125,2.34375 -2.8125,2.34375 z m 0,0"
               id="id-dd6d67a4-058c-4238-ac05-0591e2ec7be3" />
          </g>
        </g>
      </g>
    </g>
    <g
       transform="matrix(0.646019,0,0,0.646019,6.9976457,38.092356)"
       ns2:version="1.3.0"
       ns2:texconverter="pdflatex"
       ns2:pdfconverter="inkscape"
       ns2:text="$\\alpha$"
       ns2:preamble="/Users/meiroseconnor/Library/Application Support/org.inkscape.Inkscape/config/inkscape/extensions/textext/default_packages.tex"
       ns2:scale="1.8312341973160358"
       ns2:alignment="middle center"
       ns2:inkscapeversion="1.0.2"
       ns2:jacobian_sqrt="0.646019"
       id="g1742">
      <defs
         id="id-e32ec335-6e1a-4fb7-87d5-945833e36397">
        <g
           id="id-1170e467-ad02-4816-b9ec-0453575fc139">
          <symbol
             overflow="visible"
             id="id-cfad5922-3625-40e7-93c6-7c5f68fbe79f">
            <path
               style="stroke:none;stroke-width:0"
               d=""
               id="id-1c8162e2-e8b5-4d86-85f7-c8d20bf16435" />
          </symbol>
          <symbol
             overflow="visible"
             id="id-1cb28d05-327f-4662-b440-3efc89f9d6d3">
            <path
               style="stroke:none;stroke-width:0"
               d="m 4.75,-2.359375 c 0,-1.5625 -0.921875,-2.046875 -1.65625,-2.046875 -1.375,0 -2.6875,1.421875 -2.6875,2.828125 0,0.9375 0.59375,1.6875 1.625,1.6875 0.625,0 1.34375,-0.234375 2.09375,-0.84375 0.125,0.53125 0.453125,0.84375 0.90625,0.84375 0.53125,0 0.84375,-0.546875 0.84375,-0.703125 0,-0.078125 -0.0625,-0.109375 -0.125,-0.109375 -0.0625,0 -0.09375,0.03125 -0.125,0.109375 -0.1875,0.484375 -0.546875,0.484375 -0.5625,0.484375 -0.3125,0 -0.3125,-0.78125 -0.3125,-1.015625 0,-0.203125 0,-0.234375 0.109375,-0.34375 C 5.796875,-2.65625 6,-3.8125 6,-3.8125 6,-3.84375 5.984375,-3.921875 5.875,-3.921875 c -0.09375,0 -0.09375,0.03125 -0.140625,0.21875 -0.1875,0.625 -0.515625,1.375 -0.984375,1.96875 z m -0.65625,1.375 c -0.890625,0.765625 -1.65625,0.875 -2.046875,0.875 -0.59375,0 -0.90625,-0.453125 -0.90625,-1.09375 0,-0.484375 0.265625,-1.5625 0.578125,-2.0625 C 2.1875,-4 2.734375,-4.1875 3.078125,-4.1875 c 0.984375,0 0.984375,1.3125 0.984375,2.078125 0,0.375 0,0.953125 0.03125,1.125 z m 0,0"
               id="id-2504b3b2-53ab-47f8-8a1b-111e83586d81" />
          </symbol>
        </g>
      </defs>
      <g
         id="id-b156e6d3-4b88-4929-94d5-63c7d2c96ee5"
         transform="translate(-149.118,-130.359)">
        <g
           style="fill:#000000;fill-opacity:1"
           id="id-b284358d-5959-4f01-b8ba-a3c56f85e9e7">
          <g
             transform="translate(148.712,134.765)"
             id="g1738">
            <path
               style="stroke:none;stroke-width:0"
               d="m 4.75,-2.359375 c 0,-1.5625 -0.921875,-2.046875 -1.65625,-2.046875 -1.375,0 -2.6875,1.421875 -2.6875,2.828125 0,0.9375 0.59375,1.6875 1.625,1.6875 0.625,0 1.34375,-0.234375 2.09375,-0.84375 0.125,0.53125 0.453125,0.84375 0.90625,0.84375 0.53125,0 0.84375,-0.546875 0.84375,-0.703125 0,-0.078125 -0.0625,-0.109375 -0.125,-0.109375 -0.0625,0 -0.09375,0.03125 -0.125,0.109375 -0.1875,0.484375 -0.546875,0.484375 -0.5625,0.484375 -0.3125,0 -0.3125,-0.78125 -0.3125,-1.015625 0,-0.203125 0,-0.234375 0.109375,-0.34375 C 5.796875,-2.65625 6,-3.8125 6,-3.8125 6,-3.84375 5.984375,-3.921875 5.875,-3.921875 c -0.09375,0 -0.09375,0.03125 -0.140625,0.21875 -0.1875,0.625 -0.515625,1.375 -0.984375,1.96875 z m -0.65625,1.375 c -0.890625,0.765625 -1.65625,0.875 -2.046875,0.875 -0.59375,0 -0.90625,-0.453125 -0.90625,-1.09375 0,-0.484375 0.265625,-1.5625 0.578125,-2.0625 C 2.1875,-4 2.734375,-4.1875 3.078125,-4.1875 c 0.984375,0 0.984375,1.3125 0.984375,2.078125 0,0.375 0,0.953125 0.03125,1.125 z m 0,0"
               id="id-24126ca4-3c54-4df0-87d7-aaad2d119643" />
          </g>
        </g>
      </g>
    </g>
    <g
       transform="matrix(0.50369934,0,0,0.50369934,50.432891,16.772322)"
       ns2:version="1.3.0"
       ns2:texconverter="pdflatex"
       ns2:pdfconverter="inkscape"
       ns2:text="$\\beta$"
       ns2:preamble="/Users/meiroseconnor/Library/Application Support/org.inkscape.Inkscape/config/inkscape/extensions/textext/default_packages.tex"
       ns2:scale="1.8312341973160358"
       ns2:alignment="middle center"
       ns2:inkscapeversion="1.0.2"
       ns2:jacobian_sqrt="0.646019"
       id="g1835">
      <defs
         id="id-43d3765f-8e53-40ed-ae4c-e53dddfb2324">
        <g
           id="id-3d8610bb-456e-4474-bee8-4f23ee6648b8">
          <symbol
             overflow="visible"
             id="id-7683deba-50f2-4758-b741-eafa3fdecfb0">
            <path
               style="stroke:none;stroke-width:0"
               d=""
               id="id-a59ade4b-4ecf-4e70-8af7-4346377bb2bc" />
          </symbol>
          <symbol
             overflow="visible"
             id="id-ea6e56e4-e0df-4aee-bb80-8691c2b58012">
            <path
               style="stroke:none;stroke-width:0"
               d="m 5.734375,-5.671875 c 0,-0.75 -0.546875,-1.359375 -1.359375,-1.359375 -0.578125,0 -0.859375,0.15625 -1.203125,0.40625 C 2.625,-6.21875 2.078125,-5.25 1.890625,-4.5 L 0.296875,1.828125 C 0.296875,1.875 0.34375,1.9375 0.421875,1.9375 0.5,1.9375 0.53125,1.90625 0.53125,1.890625 L 1.234375,-0.875 c 0.1875,0.609375 0.625,0.96875 1.359375,0.96875 C 3.3125,0.09375 4.0625,-0.25 4.515625,-0.6875 5,-1.140625 5.3125,-1.78125 5.3125,-2.515625 c 0,-0.71875 -0.375,-1.25 -0.734375,-1.484375 0.578125,-0.34375 1.15625,-0.953125 1.15625,-1.671875 z M 3.9375,-4.015625 c -0.125,0.046875 -0.234375,0.0625 -0.484375,0.0625 -0.140625,0 -0.328125,0.015625 -0.4375,-0.03125 0.03125,-0.109375 0.390625,-0.078125 0.5,-0.078125 0.203125,0 0.296875,0 0.421875,0.046875 z M 5.171875,-5.90625 c 0,0.703125 -0.375,1.421875 -0.890625,1.734375 C 4,-4.28125 3.8125,-4.296875 3.515625,-4.296875 c -0.21875,0 -0.78125,-0.015625 -0.78125,0.3125 0,0.28125 0.515625,0.25 0.6875,0.25 0.375,0 0.53125,0 0.828125,-0.125 0.375,0.359375 0.421875,0.671875 0.4375,1.125 0.015625,0.578125 -0.21875,1.328125 -0.5,1.71875 C 3.796875,-0.484375 3.125,-0.125 2.5625,-0.125 c -0.765625,0 -1.140625,-0.578125 -1.140625,-1.28125 0,-0.09375 0,-0.25 0.046875,-0.4375 L 2.109375,-4.359375 C 2.328125,-5.21875 3.046875,-6.8125 4.25,-6.8125 c 0.578125,0 0.921875,0.3125 0.921875,0.90625 z m 0,0"
               id="id-7a021cb8-4285-41fd-870b-08d5261cfa41" />
          </symbol>
        </g>
      </defs>
      <g
         id="id-ebd6a7db-850d-41b9-84d6-554bbe7a0aca"
         transform="translate(-149.009,-127.734)">
        <g
           style="fill:#000000;fill-opacity:1"
           id="id-5787496c-ad8d-4d13-b2b5-b49808e2c851">
          <g
             transform="translate(148.712,134.765)"
             id="g1831">
            <path
               style="stroke:none;stroke-width:0"
               d="m 5.734375,-5.671875 c 0,-0.75 -0.546875,-1.359375 -1.359375,-1.359375 -0.578125,0 -0.859375,0.15625 -1.203125,0.40625 C 2.625,-6.21875 2.078125,-5.25 1.890625,-4.5 L 0.296875,1.828125 C 0.296875,1.875 0.34375,1.9375 0.421875,1.9375 0.5,1.9375 0.53125,1.90625 0.53125,1.890625 L 1.234375,-0.875 c 0.1875,0.609375 0.625,0.96875 1.359375,0.96875 C 3.3125,0.09375 4.0625,-0.25 4.515625,-0.6875 5,-1.140625 5.3125,-1.78125 5.3125,-2.515625 c 0,-0.71875 -0.375,-1.25 -0.734375,-1.484375 0.578125,-0.34375 1.15625,-0.953125 1.15625,-1.671875 z M 3.9375,-4.015625 c -0.125,0.046875 -0.234375,0.0625 -0.484375,0.0625 -0.140625,0 -0.328125,0.015625 -0.4375,-0.03125 0.03125,-0.109375 0.390625,-0.078125 0.5,-0.078125 0.203125,0 0.296875,0 0.421875,0.046875 z M 5.171875,-5.90625 c 0,0.703125 -0.375,1.421875 -0.890625,1.734375 C 4,-4.28125 3.8125,-4.296875 3.515625,-4.296875 c -0.21875,0 -0.78125,-0.015625 -0.78125,0.3125 0,0.28125 0.515625,0.25 0.6875,0.25 0.375,0 0.53125,0 0.828125,-0.125 0.375,0.359375 0.421875,0.671875 0.4375,1.125 0.015625,0.578125 -0.21875,1.328125 -0.5,1.71875 C 3.796875,-0.484375 3.125,-0.125 2.5625,-0.125 c -0.765625,0 -1.140625,-0.578125 -1.140625,-1.28125 0,-0.09375 0,-0.25 0.046875,-0.4375 L 2.109375,-4.359375 C 2.328125,-5.21875 3.046875,-6.8125 4.25,-6.8125 c 0.578125,0 0.921875,0.3125 0.921875,0.90625 z m 0,0"
               id="id-370f2298-e067-4456-bd37-35b4ce28c85f" />
          </g>
        </g>
      </g>
    </g>
    <g
       transform="matrix(0.49817649,0,0,0.49817649,66.391645,35.618218)"
       ns2:version="1.3.0"
       ns2:texconverter="pdflatex"
       ns2:pdfconverter="inkscape"
       ns2:text="$\\gamma$"
       ns2:preamble="/Users/meiroseconnor/Library/Application Support/org.inkscape.Inkscape/config/inkscape/extensions/textext/default_packages.tex"
       ns2:scale="1.8312341973160358"
       ns2:alignment="middle center"
       ns2:inkscapeversion="1.0.2"
       ns2:jacobian_sqrt="0.646019"
       id="g1957">
      <defs
         id="id-8754c48a-c1f0-45bc-a8af-1a8573f54185">
        <g
           id="id-3ea8b4e6-b1cb-4a77-b450-d56efec1c571">
          <symbol
             overflow="visible"
             id="id-9cab7c07-93cd-4c8f-bae7-7aa91cf5eec6">
            <path
               style="stroke:none;stroke-width:0"
               d=""
               id="id-7e3e3e01-da5e-483d-962e-890a8e240bbb" />
          </symbol>
          <symbol
             overflow="visible"
             id="id-dcae3cef-5d28-4c07-824e-1a59523dfbd9">
            <path
               style="stroke:none;stroke-width:0"
               d="M 0.40625,-2.53125 C 0.796875,-3.671875 1.890625,-3.6875 2,-3.6875 c 1.5,0 1.609375,1.75 1.609375,2.53125 0,0.609375 -0.046875,0.78125 -0.125,0.984375 -0.21875,0.71875 -0.515625,1.875 -0.515625,2.140625 0,0.109375 0.046875,0.171875 0.125,0.171875 0.140625,0 0.21875,-0.21875 0.328125,-0.59375 C 3.65625,0.703125 3.75,0.140625 3.78125,-0.171875 c 0.03125,-0.125 0.046875,-0.25 0.09375,-0.390625 0.3125,-0.984375 0.953125,-2.46875 1.34375,-3.25 0.078125,-0.125 0.1875,-0.34375 0.1875,-0.390625 0,-0.09375 -0.09375,-0.09375 -0.109375,-0.09375 -0.03125,0 -0.09375,0 -0.125,0.0625 C 4.65625,-3.28125 4.25,-2.28125 3.859375,-1.28125 3.84375,-1.578125 3.84375,-2.34375 3.453125,-3.3125 3.203125,-3.921875 2.8125,-4.40625 2.125,-4.40625 c -1.25,0 -1.953125,1.515625 -1.953125,1.828125 0,0.09375 0.09375,0.09375 0.203125,0.09375 z m 0,0"
               id="id-8df757df-acfc-4978-af84-052c82a64e2b" />
          </symbol>
        </g>
      </defs>
      <g
         id="id-b3e32b06-8533-4910-ae16-53de1f70df3a"
         transform="translate(-148.884,-130.359)">
        <g
           style="fill:#000000;fill-opacity:1"
           id="id-13840a29-61d8-45ac-adcb-c755e7de1629">
          <g
             transform="translate(148.712,134.765)"
             id="g1953">
            <path
               style="stroke:none;stroke-width:0"
               d="M 0.40625,-2.53125 C 0.796875,-3.671875 1.890625,-3.6875 2,-3.6875 c 1.5,0 1.609375,1.75 1.609375,2.53125 0,0.609375 -0.046875,0.78125 -0.125,0.984375 -0.21875,0.71875 -0.515625,1.875 -0.515625,2.140625 0,0.109375 0.046875,0.171875 0.125,0.171875 0.140625,0 0.21875,-0.21875 0.328125,-0.59375 C 3.65625,0.703125 3.75,0.140625 3.78125,-0.171875 c 0.03125,-0.125 0.046875,-0.25 0.09375,-0.390625 0.3125,-0.984375 0.953125,-2.46875 1.34375,-3.25 0.078125,-0.125 0.1875,-0.34375 0.1875,-0.390625 0,-0.09375 -0.09375,-0.09375 -0.109375,-0.09375 -0.03125,0 -0.09375,0 -0.125,0.0625 C 4.65625,-3.28125 4.25,-2.28125 3.859375,-1.28125 3.84375,-1.578125 3.84375,-2.34375 3.453125,-3.3125 3.203125,-3.921875 2.8125,-4.40625 2.125,-4.40625 c -1.25,0 -1.953125,1.515625 -1.953125,1.828125 0,0.09375 0.09375,0.09375 0.203125,0.09375 z m 0,0"
               id="id-64cbfe4e-a345-4fdf-bf76-f5d384427849" />
          </g>
        </g>
      </g>
    </g>
    <g
       transform="matrix(0.45625945,0,0,0.45625945,51.930219,46.00612)"
       ns2:version="1.3.0"
       ns2:texconverter="pdflatex"
       ns2:pdfconverter="inkscape"
       ns2:text="$\\delta$"
       ns2:preamble="/Users/meiroseconnor/Library/Application Support/org.inkscape.Inkscape/config/inkscape/extensions/textext/default_packages.tex"
       ns2:scale="1.8312341973160358"
       ns2:alignment="middle center"
       ns2:inkscapeversion="1.0.2"
       ns2:jacobian_sqrt="0.646019"
       id="g2072">
      <defs
         id="id-c3df80ea-e808-4f7d-81f0-c6f2a96f019a">
        <g
           id="id-9b720293-eda4-4145-9508-1a1bba6b8730">
          <symbol
             overflow="visible"
             id="id-1134e46a-ee91-41fc-8e4b-ace5affed716">
            <path
               style="stroke:none;stroke-width:0"
               d=""
               id="id-02e84434-7217-4060-93ff-337e6e6a2952" />
          </symbol>
          <symbol
             overflow="visible"
             id="id-46ffb085-2721-4814-a109-9b6762d83b98">
            <path
               style="stroke:none;stroke-width:0"
               d="M 2.625,-4.359375 C 1.390625,-4.0625 0.421875,-2.765625 0.421875,-1.5625 0.421875,-0.59375 1.0625,0.125 2,0.125 c 1.15625,0 1.984375,-1.578125 1.984375,-2.953125 0,-0.90625 -0.390625,-1.40625 -0.734375,-1.84375 C 2.890625,-5.125 2.296875,-5.875 2.296875,-6.3125 c 0,-0.21875 0.203125,-0.453125 0.546875,-0.453125 0.3125,0 0.5,0.125 0.71875,0.265625 0.203125,0.125 0.390625,0.25 0.546875,0.25 C 4.359375,-6.25 4.5,-6.484375 4.5,-6.65625 4.5,-6.875 4.34375,-6.890625 3.984375,-6.984375 3.46875,-7.09375 3.328125,-7.09375 3.171875,-7.09375 c -0.78125,0 -1.140625,0.4375 -1.140625,1.03125 0,0.546875 0.296875,1.09375 0.59375,1.703125 z m 0.125,0.21875 c 0.25,0.46875 0.546875,1 0.546875,1.71875 0,0.65625 -0.375,2.328125 -1.296875,2.328125 -0.546875,0 -0.96875,-0.421875 -0.96875,-1.1875 0,-0.625 0.375,-2.5 1.71875,-2.859375 z m 0,0"
               id="id-a95a52b8-1925-43ce-8105-71e078a865c6" />
          </symbol>
        </g>
      </defs>
      <g
         id="id-b580427e-322a-4470-8cd8-29d876f069d8"
         transform="translate(-149.134,-127.671)">
        <g
           style="fill:#000000;fill-opacity:1"
           id="id-c848a3cd-1f5a-4749-b8ae-d6581862ea71">
          <g
             transform="translate(148.712,134.765)"
             id="g2068">
            <path
               style="stroke:none;stroke-width:0"
               d="M 2.625,-4.359375 C 1.390625,-4.0625 0.421875,-2.765625 0.421875,-1.5625 0.421875,-0.59375 1.0625,0.125 2,0.125 c 1.15625,0 1.984375,-1.578125 1.984375,-2.953125 0,-0.90625 -0.390625,-1.40625 -0.734375,-1.84375 C 2.890625,-5.125 2.296875,-5.875 2.296875,-6.3125 c 0,-0.21875 0.203125,-0.453125 0.546875,-0.453125 0.3125,0 0.5,0.125 0.71875,0.265625 0.203125,0.125 0.390625,0.25 0.546875,0.25 C 4.359375,-6.25 4.5,-6.484375 4.5,-6.65625 4.5,-6.875 4.34375,-6.890625 3.984375,-6.984375 3.46875,-7.09375 3.328125,-7.09375 3.171875,-7.09375 c -0.78125,0 -1.140625,0.4375 -1.140625,1.03125 0,0.546875 0.296875,1.09375 0.59375,1.703125 z m 0.125,0.21875 c 0.25,0.46875 0.546875,1 0.546875,1.71875 0,0.65625 -0.375,2.328125 -1.296875,2.328125 -0.546875,0 -0.96875,-0.421875 -0.96875,-1.1875 0,-0.625 0.375,-2.5 1.71875,-2.859375 z m 0,0"
               id="id-12d023f2-2caa-49ee-bcb7-6110763ab68c" />
          </g>
        </g>
      </g>
    </g>
    <circle
       style="fill:none;fill-opacity:1;stroke:#000000;stroke-width:0.352777;stroke-miterlimit:4;stroke-dasharray:none;paint-order:markers stroke fill;stop-color:#000000"
       id="path2087"
       cx="62.82515"
       cy="8.4999571"
       r="3.4823842" />
    <circle
       style="fill:none;fill-opacity:1;stroke:#000000;stroke-width:0.352777;stroke-miterlimit:4;stroke-dasharray:none;paint-order:markers stroke fill;stop-color:#000000"
       id="circle2100"
       cx="79.098495"
       cy="10.531522"
       r="3.4823842" />
    <circle
       style="fill:none;fill-opacity:1;stroke:#000000;stroke-width:0.352777;stroke-miterlimit:4;stroke-dasharray:none;paint-order:markers stroke fill;stop-color:#000000"
       id="circle2102"
       cx="81.791779"
       cy="44.31459"
       r="3.4823842" />
    <path
       style="fill:none;stroke:#000000;stroke-width:0.35277778;stroke-linecap:butt;stroke-linejoin:miter;stroke-opacity:1;stroke-miterlimit:4;stroke-dasharray:none;marker-end:url(#marker2152)"
       d="M 52.650323,9.2312491 58.822378,8.6945487"
       id="path2104" />
    <path
       style="fill:none;stroke:#000000;stroke-width:0.35277778;stroke-linecap:butt;stroke-linejoin:miter;stroke-opacity:1;stroke-miterlimit:4;stroke-dasharray:none;marker-end:url(#marker2192)"
       d="m 71.971542,19.106539 4.561954,-5.581686"
       id="path2106" />
    <path
       style="fill:none;stroke:#000000;stroke-width:0.35277778;stroke-linecap:butt;stroke-linejoin:miter;stroke-opacity:1;stroke-miterlimit:4;stroke-dasharray:none;marker-end:url(#marker2118)"
       d="m 72.776592,32.792402 6.547747,8.211519"
       id="path2108" />
  </g>
</svg>
