<?xml version="1.0" encoding="UTF-8" standalone="no"?>
<svg
   xmlns:ns5="http://www.iki.fi/pav/software/textext/"
   xmlns:dc="http://purl.org/dc/elements/1.1/"
   xmlns:cc="http://creativecommons.org/ns#"
   xmlns:rdf="http://www.w3.org/1999/02/22-rdf-syntax-ns#"
   xmlns:svg="http://www.w3.org/2000/svg"
   xmlns="http://www.w3.org/2000/svg"
   xmlns:sodipodi="http://sodipodi.sourceforge.net/DTD/sodipodi-0.dtd"
   xmlns:inkscape="http://www.inkscape.org/namespaces/inkscape"
   width="3.5in"
   height="2in"
   viewBox="0 0 88.9 50.8"
   version="1.1"
   id="svg8"
   sodipodi:docname="proof5.svg"
   inkscape:version="1.0.2 (e86c8708, 2021-01-15)">
  <defs
     id="defs2">
    <marker
       style="overflow:visible;"
       id="marker1715"
       refX="0.0"
       refY="0.0"
       orient="auto"
       inkscape:stockid="Arrow1Mend"
       inkscape:isstock="true">
      <path
         transform="scale(0.4) rotate(180) translate(10,0)"
         style="fill-rule:evenodd;stroke:#000000;stroke-width:1pt;stroke-opacity:1;fill:#000000;fill-opacity:1"
         d="M 0.0,0.0 L 5.0,-5.0 L -12.5,0.0 L 5.0,5.0 L 0.0,0.0 z "
         id="path1713" />
    </marker>
    <marker
       style="overflow:visible;"
       id="marker1194"
       refX="0.0"
       refY="0.0"
       orient="auto"
       inkscape:stockid="Arrow1Mend"
       inkscape:isstock="true">
      <path
         transform="scale(0.4) rotate(180) translate(10,0)"
         style="fill-rule:evenodd;stroke:#000000;stroke-width:1pt;stroke-opacity:1;fill:#000000;fill-opacity:1"
         d="M 0.0,0.0 L 5.0,-5.0 L -12.5,0.0 L 5.0,5.0 L 0.0,0.0 z "
         id="path1192" />
    </marker>
    <marker
       style="overflow:visible;"
       id="marker1184"
       refX="0.0"
       refY="0.0"
       orient="auto"
       inkscape:stockid="Arrow1Mend"
       inkscape:isstock="true">
      <path
         transform="scale(0.4) rotate(180) translate(10,0)"
         style="fill-rule:evenodd;stroke:#000000;stroke-width:1pt;stroke-opacity:1;fill:#000000;fill-opacity:1"
         d="M 0.0,0.0 L 5.0,-5.0 L -12.5,0.0 L 5.0,5.0 L 0.0,0.0 z "
         id="path1182" />
    </marker>
    <marker
       style="overflow:visible;"
       id="marker1162"
       refX="0.0"
       refY="0.0"
       orient="auto"
       inkscape:stockid="Arrow1Mend"
       inkscape:isstock="true"
       inkscape:collect="always">
      <path
         transform="scale(0.4) rotate(180) translate(10,0)"
         style="fill-rule:evenodd;stroke:#000000;stroke-width:1pt;stroke-opacity:1;fill:#000000;fill-opacity:1"
         d="M 0.0,0.0 L 5.0,-5.0 L -12.5,0.0 L 5.0,5.0 L 0.0,0.0 z "
         id="path1160" />
    </marker>
  </defs>
  <sodipodi:namedview
     id="base"
     pagecolor="#ffffff"
     bordercolor="#666666"
     borderopacity="1.0"
     inkscape:pageopacity="0.0"
     inkscape:pageshadow="2"
     inkscape:zoom="1.6480993"
     inkscape:cx="160.55463"
     inkscape:cy="51.395129"
     inkscape:document-units="in"
     inkscape:current-layer="g1306"
     inkscape:document-rotation="0"
     showgrid="false"
     units="in"
     inkscape:window-width="1252"
     inkscape:window-height="803"
     inkscape:window-x="0"
     inkscape:window-y="23"
     inkscape:window-maximized="0" />
  <metadata
     id="metadata5">
    <rdf:RDF>
      <cc:Work
         rdf:about="">
        <dc:format>image/svg+xml</dc:format>
        <dc:type
           rdf:resource="http://purl.org/dc/dcmitype/StillImage" />
        <dc:title></dc:title>
      </cc:Work>
    </rdf:RDF>
  </metadata>
  <g
     inkscape:label="Layer 1"
     inkscape:groupmode="layer"
     id="layer1">
    <g
       id="g870"
       transform="translate(-5.590472,-1.3424254)"
       style="fill:none;fill-opacity:1;stroke-width:0.35277778;stroke-miterlimit:4;stroke-dasharray:none">
      <circle
         style="fill:none;stroke:#000000;stroke-width:0.35277778;paint-order:markers stroke fill;stop-color:#000000;fill-opacity:1;stroke-miterlimit:4;stroke-dasharray:none"
         id="path833"
         cx="31.108532"
         cy="26.997116"
         r="14.262628" />
      <circle
         style="fill:none;stroke:#000000;stroke-width:0.35277778;paint-order:markers stroke fill;stop-color:#000000;fill-opacity:1;stroke-miterlimit:4;stroke-dasharray:none"
         id="path835"
         cx="56.747299"
         cy="10.866763"
         r="6.6219339" />
      <circle
         style="fill:none;stroke:#000000;stroke-width:0.35277778;paint-order:markers stroke fill;stop-color:#000000;fill-opacity:1;stroke-miterlimit:4;stroke-dasharray:none"
         id="path835-2"
         cx="56.747299"
         cy="42.618088"
         r="6.6219339" />
      <circle
         style="fill:none;stroke:#000000;stroke-width:0.35277778;paint-order:markers stroke fill;stop-color:#000000;fill-opacity:1;stroke-miterlimit:4;stroke-dasharray:none"
         id="path835-27"
         cx="76.613106"
         cy="26.997116"
         r="6.6219339" />
    </g>
    <path
       style="fill:none;stroke:#000000;stroke-width:0.26458300000000001px;stroke-linecap:butt;stroke-linejoin:miter;stroke-opacity:1;marker-end:url(#marker1162)"
       d="m 37.587602,33.566602 7.342693,4.720304"
       id="path872" />
    <path
       style="fill:none;stroke:#000000;stroke-width:0.26458300000000001px;stroke-linecap:butt;stroke-linejoin:miter;stroke-opacity:1;marker-end:url(#marker1194)"
       d="m 39.790031,25.260891 24.435371,-0.08255"
       id="path874" />
    <path
       style="fill:none;stroke:#000000;stroke-width:0.26458300000000001px;stroke-linecap:butt;stroke-linejoin:miter;stroke-opacity:1;marker-end:url(#marker1184)"
       d="m 36.322849,16.262731 8.667953,-3.962493"
       id="path876" />
    <g
       transform="matrix(0.646019,0,0,0.646019,12.820661,22.920204)"
       ns5:version="1.3.0"
       ns5:texconverter="pdflatex"
       ns5:pdfconverter="inkscape"
       ns5:text="$\\sim \\! \\varphi \\wedge \\square \\varphi$"
       ns5:preamble="/Users/meiroseconnor/Library/Application Support/org.inkscape.Inkscape/config/inkscape/extensions/textext/default_packages.tex"
       ns5:scale="1.8312341973160358"
       ns5:alignment="middle center"
       ns5:jacobian_sqrt="0.646019"
       id="g1306">
      <defs
         id="id-3bb8d66d-97de-40ee-b4d4-947932ade666">
        <g
           id="id-63c0240c-8109-4bc3-bf54-5e3c6c0f4a1b">
          <symbol
             overflow="visible"
             id="id-9977ed15-203a-44ab-970c-ab10c95ee6cb">
            <path
               style="stroke:none;stroke-width:0"
               d=""
               id="id-d72c2329-c2e7-4530-b8a6-a30b67c91983" />
          </symbol>
          <symbol
             overflow="visible"
             id="id-654f39bd-7f9d-44f5-b1a6-ff64be9fef58">
            <path
               style="stroke:none;stroke-width:0"
               d="m 7.203125,-3.328125 c 0,-0.21875 -0.0625,-0.328125 -0.140625,-0.328125 -0.046875,0 -0.140625,0.078125 -0.140625,0.265625 -0.046875,0.953125 -0.703125,1.5 -1.40625,1.5 -0.625,0 -1.09375,-0.421875 -1.59375,-0.84375 -0.5,-0.46875 -1.015625,-0.921875 -1.703125,-0.921875 -1.078125,0 -1.671875,1.09375 -1.671875,2 0,0.328125 0.125,0.328125 0.140625,0.328125 0.109375,0 0.140625,-0.203125 0.140625,-0.234375 0.046875,-1.09375 0.78125,-1.53125 1.390625,-1.53125 0.625,0 1.109375,0.421875 1.59375,0.84375 0.515625,0.46875 1.03125,0.921875 1.703125,0.921875 1.09375,0 1.6875,-1.09375 1.6875,-2 z m 0,0"
               id="id-c6c30e24-5de0-45e3-8b06-87f26792443d" />
          </symbol>
          <symbol
             overflow="visible"
             id="id-9eaac145-d8b3-4be3-8d26-cb598cfc6326">
            <path
               style="stroke:none;stroke-width:0"
               d="M 3.546875,-5.75 C 3.46875,-5.921875 3.40625,-5.96875 3.3125,-5.96875 c -0.125,0 -0.15625,0.078125 -0.21875,0.21875 L 0.625,-0.171875 c -0.0625,0.125 -0.078125,0.140625 -0.078125,0.1875 0,0.109375 0.09375,0.203125 0.203125,0.203125 0.0625,0 0.140625,-0.015625 0.234375,-0.203125 L 3.3125,-5.28125 5.65625,0.015625 C 5.75,0.21875 5.859375,0.21875 5.890625,0.21875 6,0.21875 6.09375,0.125 6.09375,0.015625 c 0,-0.015625 0,-0.03125 -0.0625,-0.15625 z m 0,0"
               id="id-a1fb82c0-3be5-47db-9b3a-170e7a1dffe4" />
          </symbol>
          <symbol
             overflow="visible"
             id="id-1996bcc0-d900-4078-b13a-81f280e9a611">
            <path
               style="stroke:none;stroke-width:0"
               d=""
               id="id-2092d6b2-3c57-4ad2-ba94-403c7cb262d0" />
          </symbol>
          <symbol
             overflow="visible"
             id="id-2bffeeab-d6bb-4aa2-b8c5-41c3e77b355b">
            <path
               style="stroke:none;stroke-width:0"
               d="M 1.6875,1.6875 C 1.65625,1.828125 1.640625,1.84375 1.640625,1.890625 c 0,0.21875 0.1875,0.28125 0.296875,0.28125 0.046875,0 0.265625,-0.03125 0.359375,-0.265625 C 2.328125,1.828125 2.375,1.5 2.65625,0.09375 c 0.078125,0 0.15625,0.015625 0.328125,0.015625 1.65625,0 3.1875,-1.5625 3.1875,-3.140625 0,-0.78125 -0.390625,-1.375 -1.140625,-1.375 -1.4375,0 -2.046875,1.9375 -2.640625,3.875 C 1.3125,-0.734375 0.75,-1.28125 0.75,-2 c 0,-0.28125 0.234375,-1.375 0.828125,-2.0625 0.09375,-0.09375 0.09375,-0.109375 0.09375,-0.140625 0,-0.03125 -0.03125,-0.09375 -0.125,-0.09375 -0.28125,0 -1.046875,1.453125 -1.046875,2.40625 0,0.9375 0.65625,1.65625 1.71875,1.90625 z m 1.390625,-2.15625 c -0.09375,0 -0.109375,0 -0.1875,-0.015625 -0.125,0 -0.125,0 -0.125,-0.03125 0,-0.015625 0.171875,-0.9375 0.1875,-1.078125 0.3125,-1.28125 1.09375,-2.234375 1.984375,-2.234375 0.6875,0 0.953125,0.53125 0.953125,1.015625 0,1.125 -1.28125,2.34375 -2.8125,2.34375 z m 0,0"
               id="id-36f46126-ce80-4bb5-8e2c-da69f1717adf" />
          </symbol>
          <symbol
             overflow="visible"
             id="id-bd162939-fe76-478a-a33d-7dd3723286d8">
            <path
               style="stroke:none;stroke-width:0"
               d=""
               id="id-bef4464e-3803-4c44-a3f3-8dd645e86219" />
          </symbol>
          <symbol
             overflow="visible"
             id="id-3619d0a0-2234-46e1-b491-70acbc378365">
            <path
               style="stroke:none;stroke-width:0"
               d="m 7.1875,-6.5 c 0,-0.3125 -0.03125,-0.34375 -0.34375,-0.34375 h -5.9375 c -0.3125,0 -0.34375,0.03125 -0.34375,0.34375 v 6.140625 C 0.5625,-0.046875 0.59375,0 0.921875,0 h 5.90625 C 7.15625,0 7.1875,-0.03125 7.1875,-0.34375 Z M 0.953125,-6.453125 H 6.78125 V -0.40625 H 0.953125 Z m 0,0"
               id="id-aa368d59-06b5-4f25-ba90-d448611bc755" />
          </symbol>
        </g>
      </defs>
      <g
         transform="matrix(0.99039961,0,0,0.99039961,11.263634,2.6135061)"
         ns5:version="1.3.0"
         ns5:texconverter="pdflatex"
         ns5:pdfconverter="inkscape"
         ns5:text="$\\sim \\! \\varphi$"
         ns5:preamble="/Users/meiroseconnor/Library/Application Support/org.inkscape.Inkscape/config/inkscape/extensions/textext/default_packages.tex"
         ns5:scale="1.8312341973160358"
         ns5:alignment="middle center"
         ns5:inkscapeversion="1.0.2"
         ns5:jacobian_sqrt="0.646019"
         id="g1542">
        <defs
           id="id-4f932e38-89e3-4e53-a4cf-8bd36687bb36">
          <g
             id="id-5d320bbf-96a1-4d3d-b305-c52950b5fd6a">
            <symbol
               overflow="visible"
               id="id-116c37f6-5008-42e8-aa64-8e588c9697fc">
              <path
                 style="stroke:none;stroke-width:0"
                 d=""
                 id="id-0c5f6f2e-d5db-4a0e-8d5b-ba7a0bac5990" />
            </symbol>
            <symbol
               overflow="visible"
               id="id-09781f9e-cc49-4c63-ac22-ce108ecd28d3">
              <path
                 style="stroke:none;stroke-width:0"
                 d="m 7.203125,-3.328125 c 0,-0.21875 -0.0625,-0.328125 -0.140625,-0.328125 -0.046875,0 -0.140625,0.078125 -0.140625,0.265625 -0.046875,0.953125 -0.703125,1.5 -1.40625,1.5 -0.625,0 -1.09375,-0.421875 -1.59375,-0.84375 -0.5,-0.46875 -1.015625,-0.921875 -1.703125,-0.921875 -1.078125,0 -1.671875,1.09375 -1.671875,2 0,0.328125 0.125,0.328125 0.140625,0.328125 0.109375,0 0.140625,-0.203125 0.140625,-0.234375 0.046875,-1.09375 0.78125,-1.53125 1.390625,-1.53125 0.625,0 1.109375,0.421875 1.59375,0.84375 0.515625,0.46875 1.03125,0.921875 1.703125,0.921875 1.09375,0 1.6875,-1.09375 1.6875,-2 z m 0,0"
                 id="id-06acde8c-6924-4a8d-a079-01b7f66fdcc1" />
            </symbol>
            <symbol
               overflow="visible"
               id="id-36662e5d-14ed-429a-80a8-ed415fc745b1">
              <path
                 style="stroke:none;stroke-width:0"
                 d=""
                 id="id-5af5db2c-66ab-4f9a-a21d-6a2f318bc899" />
            </symbol>
            <symbol
               overflow="visible"
               id="id-bcaea271-8429-4793-8dd4-0c1ee31bf76d">
              <path
                 style="stroke:none;stroke-width:0"
                 d="M 1.6875,1.6875 C 1.65625,1.828125 1.640625,1.84375 1.640625,1.890625 c 0,0.21875 0.1875,0.28125 0.296875,0.28125 0.046875,0 0.265625,-0.03125 0.359375,-0.265625 C 2.328125,1.828125 2.375,1.5 2.65625,0.09375 c 0.078125,0 0.15625,0.015625 0.328125,0.015625 1.65625,0 3.1875,-1.5625 3.1875,-3.140625 0,-0.78125 -0.390625,-1.375 -1.140625,-1.375 -1.4375,0 -2.046875,1.9375 -2.640625,3.875 C 1.3125,-0.734375 0.75,-1.28125 0.75,-2 c 0,-0.28125 0.234375,-1.375 0.828125,-2.0625 0.09375,-0.09375 0.09375,-0.109375 0.09375,-0.140625 0,-0.03125 -0.03125,-0.09375 -0.125,-0.09375 -0.28125,0 -1.046875,1.453125 -1.046875,2.40625 0,0.9375 0.65625,1.65625 1.71875,1.90625 z m 1.390625,-2.15625 c -0.09375,0 -0.109375,0 -0.1875,-0.015625 -0.125,0 -0.125,0 -0.125,-0.03125 0,-0.015625 0.171875,-0.9375 0.1875,-1.078125 0.3125,-1.28125 1.09375,-2.234375 1.984375,-2.234375 0.6875,0 0.953125,0.53125 0.953125,1.015625 0,1.125 -1.28125,2.34375 -2.8125,2.34375 z m 0,0"
                 id="id-890a87af-1126-41ce-847d-d096116e0f19" />
            </symbol>
          </g>
        </defs>
        <g
           id="id-b64d5191-4843-411d-8b78-92e40ce3b7e1"
           transform="translate(-149.259,-130.359)">
          <g
             style="fill:#000000;fill-opacity:1"
             id="id-d738df17-4d57-4a77-aceb-aa940a9936d5">
            <g
               transform="translate(148.712,134.765)"
               id="g1534">
              <path
                 style="stroke:none;stroke-width:0"
                 d="m 7.203125,-3.328125 c 0,-0.21875 -0.0625,-0.328125 -0.140625,-0.328125 -0.046875,0 -0.140625,0.078125 -0.140625,0.265625 -0.046875,0.953125 -0.703125,1.5 -1.40625,1.5 -0.625,0 -1.09375,-0.421875 -1.59375,-0.84375 -0.5,-0.46875 -1.015625,-0.921875 -1.703125,-0.921875 -1.078125,0 -1.671875,1.09375 -1.671875,2 0,0.328125 0.125,0.328125 0.140625,0.328125 0.109375,0 0.140625,-0.203125 0.140625,-0.234375 0.046875,-1.09375 0.78125,-1.53125 1.390625,-1.53125 0.625,0 1.109375,0.421875 1.59375,0.84375 0.515625,0.46875 1.03125,0.921875 1.703125,0.921875 1.09375,0 1.6875,-1.09375 1.6875,-2 z m 0,0"
                 id="id-3dc98928-03a7-4589-9ef4-22c0ae528ad3" />
            </g>
          </g>
          <g
             style="fill:#000000;fill-opacity:1"
             id="id-46d69b16-0db0-4c30-9c37-66c99dd098fe">
            <g
               transform="translate(157.568,134.765)"
               id="g1538">
              <path
                 style="stroke:none;stroke-width:0"
                 d="M 1.6875,1.6875 C 1.65625,1.828125 1.640625,1.84375 1.640625,1.890625 c 0,0.21875 0.1875,0.28125 0.296875,0.28125 0.046875,0 0.265625,-0.03125 0.359375,-0.265625 C 2.328125,1.828125 2.375,1.5 2.65625,0.09375 c 0.078125,0 0.15625,0.015625 0.328125,0.015625 1.65625,0 3.1875,-1.5625 3.1875,-3.140625 0,-0.78125 -0.390625,-1.375 -1.140625,-1.375 -1.4375,0 -2.046875,1.9375 -2.640625,3.875 C 1.3125,-0.734375 0.75,-1.28125 0.75,-2 c 0,-0.28125 0.234375,-1.375 0.828125,-2.0625 0.09375,-0.09375 0.09375,-0.109375 0.09375,-0.140625 0,-0.03125 -0.03125,-0.09375 -0.125,-0.09375 -0.28125,0 -1.046875,1.453125 -1.046875,2.40625 0,0.9375 0.65625,1.65625 1.71875,1.90625 z m 1.390625,-2.15625 c -0.09375,0 -0.109375,0 -0.1875,-0.015625 -0.125,0 -0.125,0 -0.125,-0.03125 0,-0.015625 0.171875,-0.9375 0.1875,-1.078125 0.3125,-1.28125 1.09375,-2.234375 1.984375,-2.234375 0.6875,0 0.953125,0.53125 0.953125,1.015625 0,1.125 -1.28125,2.34375 -2.8125,2.34375 z m 0,0"
                 id="id-d6104dc2-b0d4-44c9-bd64-eff515044cae" />
            </g>
          </g>
        </g>
      </g>
      <g
         transform="matrix(1.1507673,0,0,1.1507673,56.767284,-23.962946)"
         ns5:version="1.3.0"
         ns5:texconverter="pdflatex"
         ns5:pdfconverter="inkscape"
         ns5:text="$\\varphi$"
         ns5:preamble="/Users/meiroseconnor/Library/Application Support/org.inkscape.Inkscape/config/inkscape/extensions/textext/default_packages.tex"
         ns5:scale="1.8312341973160358"
         ns5:alignment="middle center"
         ns5:inkscapeversion="1.0.2"
         ns5:jacobian_sqrt="0.646019"
         id="g1627">
        <defs
           id="id-3b51da6f-d8a4-4abb-9339-a6c258775edd">
          <g
             id="id-4c3ec9a4-b91b-4696-87de-661d6cd0d98c">
            <symbol
               overflow="visible"
               id="id-a82a0894-16f7-477c-b26a-d5d45fc2cceb">
              <path
                 style="stroke:none;stroke-width:0"
                 d=""
                 id="id-9226992f-4330-470b-acd8-3b821a141bdc" />
            </symbol>
            <symbol
               overflow="visible"
               id="id-8e50e2a6-e4cd-406f-9b9b-c6d9b385b027">
              <path
                 style="stroke:none;stroke-width:0"
                 d="M 1.6875,1.6875 C 1.65625,1.828125 1.640625,1.84375 1.640625,1.890625 c 0,0.21875 0.1875,0.28125 0.296875,0.28125 0.046875,0 0.265625,-0.03125 0.359375,-0.265625 C 2.328125,1.828125 2.375,1.5 2.65625,0.09375 c 0.078125,0 0.15625,0.015625 0.328125,0.015625 1.65625,0 3.1875,-1.5625 3.1875,-3.140625 0,-0.78125 -0.390625,-1.375 -1.140625,-1.375 -1.4375,0 -2.046875,1.9375 -2.640625,3.875 C 1.3125,-0.734375 0.75,-1.28125 0.75,-2 c 0,-0.28125 0.234375,-1.375 0.828125,-2.0625 0.09375,-0.09375 0.09375,-0.109375 0.09375,-0.140625 0,-0.03125 -0.03125,-0.09375 -0.125,-0.09375 -0.28125,0 -1.046875,1.453125 -1.046875,2.40625 0,0.9375 0.65625,1.65625 1.71875,1.90625 z m 1.390625,-2.15625 c -0.09375,0 -0.109375,0 -0.1875,-0.015625 -0.125,0 -0.125,0 -0.125,-0.03125 0,-0.015625 0.171875,-0.9375 0.1875,-1.078125 0.3125,-1.28125 1.09375,-2.234375 1.984375,-2.234375 0.6875,0 0.953125,0.53125 0.953125,1.015625 0,1.125 -1.28125,2.34375 -2.8125,2.34375 z m 0,0"
                 id="id-da9849c2-dc35-4606-870e-631df107f330" />
            </symbol>
          </g>
        </defs>
        <g
           id="id-08074c9f-e590-4991-8c55-9b7ac847af7f"
           transform="translate(-149.212,-130.359)">
          <g
             style="fill:#000000;fill-opacity:1"
             id="id-cc379488-dcfd-4daa-b314-b6f4d9024ffd">
            <g
               transform="translate(148.712,134.765)"
               id="g1623">
              <path
                 style="stroke:none;stroke-width:0"
                 d="M 1.6875,1.6875 C 1.65625,1.828125 1.640625,1.84375 1.640625,1.890625 c 0,0.21875 0.1875,0.28125 0.296875,0.28125 0.046875,0 0.265625,-0.03125 0.359375,-0.265625 C 2.328125,1.828125 2.375,1.5 2.65625,0.09375 c 0.078125,0 0.15625,0.015625 0.328125,0.015625 1.65625,0 3.1875,-1.5625 3.1875,-3.140625 0,-0.78125 -0.390625,-1.375 -1.140625,-1.375 -1.4375,0 -2.046875,1.9375 -2.640625,3.875 C 1.3125,-0.734375 0.75,-1.28125 0.75,-2 c 0,-0.28125 0.234375,-1.375 0.828125,-2.0625 0.09375,-0.09375 0.09375,-0.109375 0.09375,-0.140625 0,-0.03125 -0.03125,-0.09375 -0.125,-0.09375 -0.28125,0 -1.046875,1.453125 -1.046875,2.40625 0,0.9375 0.65625,1.65625 1.71875,1.90625 z m 1.390625,-2.15625 c -0.09375,0 -0.109375,0 -0.1875,-0.015625 -0.125,0 -0.125,0 -0.125,-0.03125 0,-0.015625 0.171875,-0.9375 0.1875,-1.078125 0.3125,-1.28125 1.09375,-2.234375 1.984375,-2.234375 0.6875,0 0.953125,0.53125 0.953125,1.015625 0,1.125 -1.28125,2.34375 -2.8125,2.34375 z m 0,0"
                 id="id-b1dc3a6c-3b77-463e-979d-e7778721c73f" />
            </g>
          </g>
        </g>
      </g>
      <g
         transform="matrix(1.1507673,0,0,1.1507673,87.248422,0.62404935)"
         ns5:version="1.3.0"
         ns5:texconverter="pdflatex"
         ns5:pdfconverter="inkscape"
         ns5:text="$\\varphi$"
         ns5:preamble="/Users/meiroseconnor/Library/Application Support/org.inkscape.Inkscape/config/inkscape/extensions/textext/default_packages.tex"
         ns5:scale="1.8312341973160358"
         ns5:alignment="middle center"
         ns5:inkscapeversion="1.0.2"
         ns5:jacobian_sqrt="0.646019"
         id="g1663">
        <defs
           id="defs1653">
          <g
             id="g1651">
            <symbol
               overflow="visible"
               id="symbol1645">
              <path
                 style="stroke:none;stroke-width:0"
                 d=""
                 id="path1643" />
            </symbol>
            <symbol
               overflow="visible"
               id="symbol1649">
              <path
                 style="stroke:none;stroke-width:0"
                 d="M 1.6875,1.6875 C 1.65625,1.828125 1.640625,1.84375 1.640625,1.890625 c 0,0.21875 0.1875,0.28125 0.296875,0.28125 0.046875,0 0.265625,-0.03125 0.359375,-0.265625 C 2.328125,1.828125 2.375,1.5 2.65625,0.09375 c 0.078125,0 0.15625,0.015625 0.328125,0.015625 1.65625,0 3.1875,-1.5625 3.1875,-3.140625 0,-0.78125 -0.390625,-1.375 -1.140625,-1.375 -1.4375,0 -2.046875,1.9375 -2.640625,3.875 C 1.3125,-0.734375 0.75,-1.28125 0.75,-2 c 0,-0.28125 0.234375,-1.375 0.828125,-2.0625 0.09375,-0.09375 0.09375,-0.109375 0.09375,-0.140625 0,-0.03125 -0.03125,-0.09375 -0.125,-0.09375 -0.28125,0 -1.046875,1.453125 -1.046875,2.40625 0,0.9375 0.65625,1.65625 1.71875,1.90625 z m 1.390625,-2.15625 c -0.09375,0 -0.109375,0 -0.1875,-0.015625 -0.125,0 -0.125,0 -0.125,-0.03125 0,-0.015625 0.171875,-0.9375 0.1875,-1.078125 0.3125,-1.28125 1.09375,-2.234375 1.984375,-2.234375 0.6875,0 0.953125,0.53125 0.953125,1.015625 0,1.125 -1.28125,2.34375 -2.8125,2.34375 z m 0,0"
                 id="path1647" />
            </symbol>
          </g>
        </defs>
        <g
           id="g1661"
           transform="translate(-149.212,-130.359)">
          <g
             style="fill:#000000;fill-opacity:1"
             id="g1659">
            <g
               transform="translate(148.712,134.765)"
               id="g1657">
              <path
                 style="stroke:none;stroke-width:0"
                 d="M 1.6875,1.6875 C 1.65625,1.828125 1.640625,1.84375 1.640625,1.890625 c 0,0.21875 0.1875,0.28125 0.296875,0.28125 0.046875,0 0.265625,-0.03125 0.359375,-0.265625 C 2.328125,1.828125 2.375,1.5 2.65625,0.09375 c 0.078125,0 0.15625,0.015625 0.328125,0.015625 1.65625,0 3.1875,-1.5625 3.1875,-3.140625 0,-0.78125 -0.390625,-1.375 -1.140625,-1.375 -1.4375,0 -2.046875,1.9375 -2.640625,3.875 C 1.3125,-0.734375 0.75,-1.28125 0.75,-2 c 0,-0.28125 0.234375,-1.375 0.828125,-2.0625 0.09375,-0.09375 0.09375,-0.109375 0.09375,-0.140625 0,-0.03125 -0.03125,-0.09375 -0.125,-0.09375 -0.28125,0 -1.046875,1.453125 -1.046875,2.40625 0,0.9375 0.65625,1.65625 1.71875,1.90625 z m 1.390625,-2.15625 c -0.09375,0 -0.109375,0 -0.1875,-0.015625 -0.125,0 -0.125,0 -0.125,-0.03125 0,-0.015625 0.171875,-0.9375 0.1875,-1.078125 0.3125,-1.28125 1.09375,-2.234375 1.984375,-2.234375 0.6875,0 0.953125,0.53125 0.953125,1.015625 0,1.125 -1.28125,2.34375 -2.8125,2.34375 z m 0,0"
                 id="path1655" />
            </g>
          </g>
        </g>
      </g>
      <g
         transform="matrix(1.1507673,0,0,1.1507673,56.767284,25.379449)"
         ns5:version="1.3.0"
         ns5:texconverter="pdflatex"
         ns5:pdfconverter="inkscape"
         ns5:text="$\\varphi$"
         ns5:preamble="/Users/meiroseconnor/Library/Application Support/org.inkscape.Inkscape/config/inkscape/extensions/textext/default_packages.tex"
         ns5:scale="1.8312341973160358"
         ns5:alignment="middle center"
         ns5:inkscapeversion="1.0.2"
         ns5:jacobian_sqrt="0.646019"
         id="g1685">
        <defs
           id="defs1675">
          <g
             id="g1673">
            <symbol
               overflow="visible"
               id="symbol1667">
              <path
                 style="stroke:none;stroke-width:0"
                 d=""
                 id="path1665" />
            </symbol>
            <symbol
               overflow="visible"
               id="symbol1671">
              <path
                 style="stroke:none;stroke-width:0"
                 d="M 1.6875,1.6875 C 1.65625,1.828125 1.640625,1.84375 1.640625,1.890625 c 0,0.21875 0.1875,0.28125 0.296875,0.28125 0.046875,0 0.265625,-0.03125 0.359375,-0.265625 C 2.328125,1.828125 2.375,1.5 2.65625,0.09375 c 0.078125,0 0.15625,0.015625 0.328125,0.015625 1.65625,0 3.1875,-1.5625 3.1875,-3.140625 0,-0.78125 -0.390625,-1.375 -1.140625,-1.375 -1.4375,0 -2.046875,1.9375 -2.640625,3.875 C 1.3125,-0.734375 0.75,-1.28125 0.75,-2 c 0,-0.28125 0.234375,-1.375 0.828125,-2.0625 0.09375,-0.09375 0.09375,-0.109375 0.09375,-0.140625 0,-0.03125 -0.03125,-0.09375 -0.125,-0.09375 -0.28125,0 -1.046875,1.453125 -1.046875,2.40625 0,0.9375 0.65625,1.65625 1.71875,1.90625 z m 1.390625,-2.15625 c -0.09375,0 -0.109375,0 -0.1875,-0.015625 -0.125,0 -0.125,0 -0.125,-0.03125 0,-0.015625 0.171875,-0.9375 0.1875,-1.078125 0.3125,-1.28125 1.09375,-2.234375 1.984375,-2.234375 0.6875,0 0.953125,0.53125 0.953125,1.015625 0,1.125 -1.28125,2.34375 -2.8125,2.34375 z m 0,0"
                 id="path1669" />
            </symbol>
          </g>
        </defs>
        <g
           id="g1683"
           transform="translate(-149.212,-130.359)">
          <g
             style="fill:#000000;fill-opacity:1"
             id="g1681">
            <g
               transform="translate(148.712,134.765)"
               id="g1679">
              <path
                 style="stroke:none;stroke-width:0"
                 d="M 1.6875,1.6875 C 1.65625,1.828125 1.640625,1.84375 1.640625,1.890625 c 0,0.21875 0.1875,0.28125 0.296875,0.28125 0.046875,0 0.265625,-0.03125 0.359375,-0.265625 C 2.328125,1.828125 2.375,1.5 2.65625,0.09375 c 0.078125,0 0.15625,0.015625 0.328125,0.015625 1.65625,0 3.1875,-1.5625 3.1875,-3.140625 0,-0.78125 -0.390625,-1.375 -1.140625,-1.375 -1.4375,0 -2.046875,1.9375 -2.640625,3.875 C 1.3125,-0.734375 0.75,-1.28125 0.75,-2 c 0,-0.28125 0.234375,-1.375 0.828125,-2.0625 0.09375,-0.09375 0.09375,-0.109375 0.09375,-0.140625 0,-0.03125 -0.03125,-0.09375 -0.125,-0.09375 -0.28125,0 -1.046875,1.453125 -1.046875,2.40625 0,0.9375 0.65625,1.65625 1.71875,1.90625 z m 1.390625,-2.15625 c -0.09375,0 -0.109375,0 -0.1875,-0.015625 -0.125,0 -0.125,0 -0.125,-0.03125 0,-0.015625 0.171875,-0.9375 0.1875,-1.078125 0.3125,-1.28125 1.09375,-2.234375 1.984375,-2.234375 0.6875,0 0.953125,0.53125 0.953125,1.015625 0,1.125 -1.28125,2.34375 -2.8125,2.34375 z m 0,0"
                 id="path1677" />
            </g>
          </g>
        </g>
      </g>
      <path
         style="fill:none;stroke:#000000;stroke-width:0.40956002;stroke-linecap:butt;stroke-linejoin:miter;stroke-opacity:1;marker-end:url(#marker1715);stroke-miterlimit:4;stroke-dasharray:0.40956002,0.81912004;stroke-dashoffset:0"
         d="M 14.171983,-17.123103 C -13.277882,-26.89054 -15.635539,-5.166414 -15.635539,-5.166414 -22.466367,16.871853 1.9080056,31.430163 8.1094361,14.368459"
         id="path1705"
         sodipodi:nodetypes="ccc" />
      <path
         style="fill:#000000;fill-opacity:1;stroke:none;stroke-width:0"
         d="m -6.5862419,-9.1802466 c -0.03596,0.161826 -0.05394,0.179807 -0.05394,0.233749 0,0.251731 0.215768,0.323654 0.341634,0.323654 0.05394,0 0.305672,-0.03596 0.413557,-0.305673 0.03596,-0.0899 0.0899,-0.467499 0.413557,-2.0857664 0.0899,0 0.179807,0.01798 0.377595,0.01798 1.905959,0 3.668071,-1.798074 3.668071,-3.614128 0,-0.899037 -0.449519,-1.582305 -1.312594,-1.582305 -1.654228,0 -2.355477,2.229611 -3.038745,4.459223 -1.240671,-0.23375 -1.887978,-0.863076 -1.887978,-1.69019 0,-0.323653 0.269712,-1.582305 0.95298,-2.373457 0.107884,-0.107885 0.107884,-0.125865 0.107884,-0.161827 0,-0.03596 -0.03596,-0.107884 -0.143846,-0.107884 -0.323653,0 -1.204709,1.672208 -1.204709,2.769034 0,1.078844 0.755191,1.905958 1.977881,2.19365 z m 1.600286,-2.4813424 c -0.107885,0 -0.125866,0 -0.215769,-0.01798 -0.143846,0 -0.143846,0 -0.143846,-0.03596 0,-0.01798 0.197788,-1.078845 0.215769,-1.240671 0.359614,-1.474421 1.258651,-2.571246 2.283554,-2.571246 0.791152,0 1.096825,0.611345 1.096825,1.168748 0,1.294613 -1.474421,2.697111 -3.236533,2.697111 z m 0,0"
         id="id-b1dc3a6c-3b77-463e-979d-e7778721c73f-3" />
      <g
         id="g2163"
         transform="translate(3.6664769,2.8203669)">
        <path
           style="fill:none;stroke:#000000;stroke-width:0.40956px;stroke-linecap:butt;stroke-linejoin:miter;stroke-opacity:1"
           d="m -4.4588221,11.912252 -5.3634056,6.066803"
           id="path1914" />
        <g
           id="g2154"
           transform="translate(0.14101835,0.07050905)">
          <path
             style="fill:none;stroke:#000000;stroke-width:0.40956px;stroke-linecap:butt;stroke-linejoin:miter;stroke-opacity:1"
             d="m -9.8222277,11.912252 5.3634056,6.066803"
             id="path1912" />
          <ellipse
             style="fill:#000000;fill-opacity:1;stroke:#000000;stroke-width:0.40956;stroke-miterlimit:4;stroke-dasharray:none;stroke-dashoffset:0;paint-order:markers stroke fill;stop-color:#000000"
             id="path1916"
             cx="-4.749845"
             cy="15.020249"
             rx="0.33803773"
             ry="0.33026674" />
          <ellipse
             style="fill:#000000;fill-opacity:1;stroke:#000000;stroke-width:0.40956;stroke-miterlimit:4;stroke-dasharray:none;stroke-dashoffset:0;paint-order:markers stroke fill;stop-color:#000000"
             id="ellipse1920"
             cx="-6.9908738"
             cy="12.364215"
             rx="0.33803773"
             ry="0.33026674" />
          <ellipse
             style="fill:#000000;fill-opacity:1;stroke:#000000;stroke-width:0.40956;stroke-miterlimit:4;stroke-dasharray:none;stroke-dashoffset:0;paint-order:markers stroke fill;stop-color:#000000"
             id="ellipse1922"
             cx="-9.6469078"
             cy="15.020249"
             rx="0.33803773"
             ry="0.33026674" />
          <ellipse
             style="fill:#000000;fill-opacity:1;stroke:#000000;stroke-width:0.40956;stroke-miterlimit:4;stroke-dasharray:none;stroke-dashoffset:0;paint-order:markers stroke fill;stop-color:#000000"
             id="ellipse1924"
             cx="-6.9908738"
             cy="17.551781"
             rx="0.33803773"
             ry="0.33026674" />
        </g>
      </g>
      <g
         transform="matrix(0.32751618,0,0,0.32751618,-18.681884,22.981543)"
         ns5:version="1.3.0"
         ns5:texconverter="pdflatex"
         ns5:pdfconverter="inkscape"
         ns5:text="\\textsc{Contradiction!}"
         ns5:preamble="/Users/meiroseconnor/Library/Application Support/org.inkscape.Inkscape/config/inkscape/extensions/textext/default_packages.tex"
         ns5:scale="1.8312341973160358"
         ns5:alignment="middle center"
         ns5:inkscapeversion="1.0.2"
         ns5:jacobian_sqrt="0.646019"
         id="g2089">
        <defs
           id="id-04eea6b8-0430-41ad-b9a8-6e89fa64cf5a">
          <g
             id="id-3aa68a08-14b1-4789-83b8-15f5a6c14c5f">
            <symbol
               overflow="visible"
               id="id-a0d2b31c-2d19-4ca5-b500-a18c1061235c">
              <path
                 style="stroke:none;stroke-width:0"
                 d=""
                 id="id-285837bf-c1c1-4535-9ea2-00a235f83b1b" />
            </symbol>
            <symbol
               overflow="visible"
               id="id-dfa894b1-2360-49ab-bd72-d42906dc340a">
              <path
                 style="stroke:none;stroke-width:0"
                 d="M 6.3125,-6.140625 C 5.984375,-6.484375 5.390625,-7.03125 4.359375,-7.03125 c -1.96875,0 -3.640625,1.59375 -3.640625,3.625 0,2.03125 1.671875,3.625 3.640625,3.625 1.6875,0 2.75,-1.359375 2.75,-2.546875 0,-0.09375 0,-0.171875 -0.125,-0.171875 -0.109375,0 -0.109375,0.0625 -0.125,0.171875 -0.078125,1.4375 -1.25,2.234375 -2.359375,2.234375 -0.875,0 -2.75,-0.515625 -2.75,-3.3125 0,-2.9375 2.03125,-3.3125 2.71875,-3.3125 1.078125,0 2.09375,0.828125 2.3125,2.359375 0.03125,0.140625 0.03125,0.171875 0.171875,0.171875 0.15625,0 0.15625,-0.03125 0.15625,-0.234375 V -6.78125 c 0,-0.171875 0,-0.25 -0.109375,-0.25 -0.046875,0 -0.078125,0 -0.15625,0.125 z m 0,0"
                 id="id-710433e5-8de4-4908-8180-8605ca24a5fe" />
            </symbol>
            <symbol
               overflow="visible"
               id="id-c6c26a69-b3c9-482e-a534-f39da4f429c0">
              <path
                 style="stroke:none;stroke-width:0"
                 d="m 5.828125,-2.546875 c 0,-1.484375 -1.1875,-2.71875 -2.65625,-2.71875 -1.484375,0 -2.65625,1.234375 -2.65625,2.71875 0,1.515625 1.203125,2.6875 2.65625,2.6875 1.453125,0 2.65625,-1.171875 2.65625,-2.6875 z M 3.171875,-0.125 c -0.703125,0 -1.8125,-0.5625 -1.8125,-2.53125 0,-1.875 1.140625,-2.359375 1.8125,-2.359375 0.671875,0 1.796875,0.5 1.796875,2.359375 0,1.96875 -1.09375,2.53125 -1.796875,2.53125 z m 0,0"
                 id="id-9df8e2e8-4dc0-440a-bc38-1ba5aa336321" />
            </symbol>
            <symbol
               overflow="visible"
               id="id-48deb68d-b334-4335-a07b-15170b324609">
              <path
                 style="stroke:none;stroke-width:0"
                 d="M 1.921875,-5 C 1.828125,-5.125 1.8125,-5.125 1.625,-5.125 H 0.421875 v 0.25 c 0.25,0 0.53125,0 0.71875,0.0625 V -1 c 0,0.21875 0,0.75 -0.71875,0.75 V 0 c 0.21875,-0.015625 0.671875,-0.03125 0.859375,-0.03125 0.15625,0 0.609375,0.015625 0.859375,0.03125 v -0.25 c -0.71875,0 -0.71875,-0.53125 -0.71875,-0.75 v -3.578125 l 0.109375,0.125 3.125,4.34375 C 4.734375,0 4.765625,0 4.828125,0 4.96875,0 4.96875,-0.0625 4.96875,-0.265625 v -3.84375 c 0,-0.234375 0,-0.765625 0.71875,-0.765625 v -0.25 c -0.21875,0.015625 -0.65625,0.03125 -0.859375,0.03125 -0.15625,0 -0.609375,-0.015625 -0.859375,-0.03125 v 0.25 c 0.71875,0 0.71875,0.53125 0.71875,0.765625 v 2.953125 z m 0,0"
                 id="id-dbd4706b-7187-4989-87e1-de42c7ab8628" />
            </symbol>
            <symbol
               overflow="visible"
               id="id-30d4b644-2f08-4e13-92e0-c9e8ac4619e5">
              <path
                 style="stroke:none;stroke-width:0"
                 d="M 5.390625,-5.0625 H 0.5 L 0.359375,-3.375 h 0.25 C 0.703125,-4.640625 0.890625,-4.8125 2,-4.8125 c 0.5625,0 0.59375,0 0.59375,0.421875 V -0.75 c 0,0.390625 -0.046875,0.5 -0.8125,0.5 H 1.578125 V 0 c 0.390625,-0.03125 0.96875,-0.03125 1.375,-0.03125 0.390625,0 0.984375,0 1.375,0.03125 V -0.25 H 4.109375 C 3.34375,-0.25 3.3125,-0.359375 3.3125,-0.75 v -3.640625 c 0,-0.421875 0.03125,-0.421875 0.578125,-0.421875 1.078125,0 1.296875,0.171875 1.390625,1.4375 h 0.25 z m 0,0"
                 id="id-aebd347b-8614-49b2-8bc7-b61083701949" />
            </symbol>
            <symbol
               overflow="visible"
               id="id-9dac0dc0-d5f4-4c97-bfad-c22e41a61fbb">
              <path
                 style="stroke:none;stroke-width:0"
                 d="M 1.859375,-4.453125 C 1.859375,-4.6875 1.875,-4.796875 1.96875,-4.84375 2.046875,-4.875 2.3125,-4.875 2.5,-4.875 c 0.734375,0 1.578125,0.03125 1.578125,1.09375 0,0.390625 -0.046875,1.109375 -1.34375,1.109375 h -0.875 z M 3.625,-2.546875 c 0.6875,-0.171875 1.3125,-0.625 1.3125,-1.234375 0,-0.6875 -0.890625,-1.34375 -2.09375,-1.34375 H 0.453125 v 0.25 c 0.65625,0 0.71875,0.0625 0.71875,0.46875 v 3.6875 c 0,0.40625 -0.0625,0.46875 -0.71875,0.46875 V 0 C 0.75,-0.015625 1.21875,-0.03125 1.5,-0.03125 c 0.296875,0 0.8125,0.015625 1.078125,0.03125 v -0.25 c -0.671875,0 -0.71875,-0.0625 -0.71875,-0.46875 V -2.453125 H 2.75 c 0.25,0 0.515625,0.015625 0.8125,0.3125 0.21875,0.234375 0.21875,0.46875 0.21875,0.90625 0,0.5625 0,0.734375 0.3125,1.046875 0.1875,0.171875 0.578125,0.328125 1.03125,0.328125 0.640625,0 0.78125,-0.625 0.78125,-0.8125 0,-0.0625 0,-0.15625 -0.125,-0.15625 -0.109375,0 -0.125,0.09375 -0.125,0.125 -0.0625,0.609375 -0.421875,0.625 -0.5,0.625 -0.1875,0 -0.28125,-0.125 -0.34375,-0.234375 C 4.734375,-0.484375 4.671875,-0.75 4.546875,-1.390625 4.46875,-1.75 4.359375,-2.25 3.625,-2.546875 Z m 0,0"
                 id="id-8b1e6fd7-3049-4478-9fbd-40026e3407af" />
            </symbol>
            <symbol
               overflow="visible"
               id="id-aea2fc85-b9ef-47a2-9564-cd49428c39ae">
              <path
                 style="stroke:none;stroke-width:0"
                 d="m 3.28125,-5.078125 c -0.0625,-0.15625 -0.109375,-0.21875 -0.21875,-0.21875 -0.140625,0 -0.15625,0.0625 -0.21875,0.1875 L 1.25,-0.984375 C 1.140625,-0.71875 0.96875,-0.265625 0.34375,-0.25 V 0 c 0.21875,-0.015625 0.5,-0.03125 0.71875,-0.03125 0.171875,0 0.625,0.015625 0.828125,0.03125 v -0.25 c -0.421875,-0.015625 -0.4375,-0.359375 -0.4375,-0.453125 0,-0.078125 0,-0.09375 0.328125,-0.984375 h 2.0625 L 4.0625,-1.125 c 0.078125,0.203125 0.21875,0.53125 0.21875,0.59375 C 4.28125,-0.25 3.921875,-0.25 3.75,-0.25 V 0 c 0.265625,-0.015625 0.859375,-0.03125 1.0625,-0.03125 0.328125,0 0.71875,0.015625 0.953125,0.03125 V -0.25 C 5.21875,-0.25 5.125,-0.296875 5,-0.640625 Z M 3.75,-1.9375 H 1.890625 l 0.9375,-2.40625 z m 0,0"
                 id="id-05f5532d-a309-4d27-bbb4-53e98792e5a8" />
            </symbol>
            <symbol
               overflow="visible"
               id="id-65924cfa-44e0-463e-9c02-f6df6e239133">
              <path
                 style="stroke:none;stroke-width:0"
                 d="m 1.171875,-0.71875 c 0,0.40625 -0.0625,0.46875 -0.71875,0.46875 V 0 H 3.25 C 4.65625,0 5.71875,-1.15625 5.71875,-2.515625 5.71875,-3.890625 4.6875,-5.125 3.25,-5.125 H 0.453125 v 0.25 c 0.65625,0 0.71875,0.0625 0.71875,0.46875 z M 2.25,-0.25 c -0.34375,0 -0.390625,-0.03125 -0.390625,-0.421875 v -3.78125 C 1.859375,-4.84375 1.90625,-4.875 2.25,-4.875 h 0.765625 c 0.859375,0 1.296875,0.46875 1.4375,0.640625 0.21875,0.28125 0.4375,0.703125 0.4375,1.71875 0,0.8125 -0.15625,1.234375 -0.359375,1.546875 C 4.359375,-0.75 3.9375,-0.25 3.015625,-0.25 Z m 0,0"
                 id="id-d98893c1-d369-49c2-ba94-b0f0607d3433" />
            </symbol>
            <symbol
               overflow="visible"
               id="id-56862267-4200-4ff9-9b68-144055f40065">
              <path
                 style="stroke:none;stroke-width:0"
                 d="M 1.859375,-4.390625 C 1.859375,-4.828125 1.90625,-4.875 2.625,-4.875 v -0.25 c -0.34375,0.015625 -0.859375,0.03125 -1.125,0.03125 -0.25,0 -0.765625,-0.015625 -1.109375,-0.03125 v 0.25 c 0.703125,0 0.75,0.046875 0.75,0.484375 v 3.65625 c 0,0.4375 -0.046875,0.484375 -0.75,0.484375 V 0 C 0.734375,-0.015625 1.25,-0.03125 1.5,-0.03125 c 0.265625,0 0.78125,0.015625 1.125,0.03125 v -0.25 c -0.71875,0 -0.765625,-0.046875 -0.765625,-0.484375 z m 0,0"
                 id="id-363b42db-8ab0-4c7c-a273-1b8a4f854022" />
            </symbol>
            <symbol
               overflow="visible"
               id="id-b2d80d4d-634d-4892-84ba-a8374066e46a">
              <path
                 style="stroke:none;stroke-width:0"
                 d="m 4.75,-4.640625 c -0.21875,-0.21875 -0.703125,-0.625 -1.453125,-0.625 -1.5,0 -2.78125,1.1875 -2.78125,2.703125 0,1.515625 1.28125,2.703125 2.78125,2.703125 1.296875,0 2.09375,-1.03125 2.09375,-1.90625 0,-0.09375 0,-0.15625 -0.140625,-0.15625 -0.109375,0 -0.109375,0.0625 -0.109375,0.15625 -0.078125,1.0625 -0.9375,1.65625 -1.765625,1.65625 -0.5,0 -2.015625,-0.265625 -2.015625,-2.453125 0,-2.21875 1.546875,-2.453125 2,-2.453125 0.734375,0 1.578125,0.515625 1.765625,1.78125 0.015625,0.078125 0.03125,0.140625 0.125,0.140625 0.140625,0 0.140625,-0.0625 0.140625,-0.25 v -1.6875 c 0,-0.15625 0,-0.234375 -0.109375,-0.234375 -0.0625,0 -0.0625,0.015625 -0.140625,0.125 z m 0,0"
                 id="id-703c9191-2d64-47a1-a35d-d2d24e6d02ea" />
            </symbol>
            <symbol
               overflow="visible"
               id="id-ea2b554c-5ac7-4a2c-ad75-33cf86a527f4">
              <path
                 style="stroke:none;stroke-width:0"
                 d="m 1.453125,-2.09375 c 0,0.15625 0.015625,0.234375 0.125,0.234375 0.109375,0 0.140625,-0.046875 0.140625,-0.21875 L 2.109375,-6.625 c 0,-0.328125 -0.265625,-0.515625 -0.53125,-0.515625 -0.25,0 -0.515625,0.1875 -0.515625,0.515625 z m 0.65625,1.5625 c 0,-0.28125 -0.234375,-0.53125 -0.53125,-0.53125 -0.28125,0 -0.515625,0.25 -0.515625,0.53125 C 1.0625,-0.234375 1.296875,0 1.578125,0 1.875,0 2.109375,-0.234375 2.109375,-0.53125 Z m 0,0"
                 id="id-770a65ef-5d3f-4acf-82c1-73fd8d52db4e" />
            </symbol>
          </g>
        </defs>
        <g
           id="id-0aa1f737-346b-4329-b9ff-a9f2914844dd"
           transform="translate(-149.431,-127.624)">
          <g
             style="fill:#000000;fill-opacity:1"
             id="id-45b9bf51-d3ac-4712-b4f9-82b74b655de8">
            <g
               transform="translate(148.712,134.765)"
               id="g2046">
              <path
                 style="stroke:none;stroke-width:0"
                 d="M 6.3125,-6.140625 C 5.984375,-6.484375 5.390625,-7.03125 4.359375,-7.03125 c -1.96875,0 -3.640625,1.59375 -3.640625,3.625 0,2.03125 1.671875,3.625 3.640625,3.625 1.6875,0 2.75,-1.359375 2.75,-2.546875 0,-0.09375 0,-0.171875 -0.125,-0.171875 -0.109375,0 -0.109375,0.0625 -0.125,0.171875 -0.078125,1.4375 -1.25,2.234375 -2.359375,2.234375 -0.875,0 -2.75,-0.515625 -2.75,-3.3125 0,-2.9375 2.03125,-3.3125 2.71875,-3.3125 1.078125,0 2.09375,0.828125 2.3125,2.359375 0.03125,0.140625 0.03125,0.171875 0.171875,0.171875 0.15625,0 0.15625,-0.03125 0.15625,-0.234375 V -6.78125 c 0,-0.171875 0,-0.25 -0.109375,-0.25 -0.046875,0 -0.078125,0 -0.15625,0.125 z m 0,0"
                 id="id-bebaed6f-6505-4fba-8a75-30e46265751d" />
            </g>
            <g
               transform="translate(156.544,134.765)"
               id="g2049">
              <path
                 style="stroke:none;stroke-width:0"
                 d="m 5.828125,-2.546875 c 0,-1.484375 -1.1875,-2.71875 -2.65625,-2.71875 -1.484375,0 -2.65625,1.234375 -2.65625,2.71875 0,1.515625 1.203125,2.6875 2.65625,2.6875 1.453125,0 2.65625,-1.171875 2.65625,-2.6875 z M 3.171875,-0.125 c -0.703125,0 -1.8125,-0.5625 -1.8125,-2.53125 0,-1.875 1.140625,-2.359375 1.8125,-2.359375 0.671875,0 1.796875,0.5 1.796875,2.359375 0,1.96875 -1.09375,2.53125 -1.796875,2.53125 z m 0,0"
                 id="id-8183283c-f652-4465-bec3-5afe607daaf7" />
            </g>
            <g
               transform="translate(162.876,134.765)"
               id="g2052">
              <path
                 style="stroke:none;stroke-width:0"
                 d="M 1.921875,-5 C 1.828125,-5.125 1.8125,-5.125 1.625,-5.125 H 0.421875 v 0.25 c 0.25,0 0.53125,0 0.71875,0.0625 V -1 c 0,0.21875 0,0.75 -0.71875,0.75 V 0 c 0.21875,-0.015625 0.671875,-0.03125 0.859375,-0.03125 0.15625,0 0.609375,0.015625 0.859375,0.03125 v -0.25 c -0.71875,0 -0.71875,-0.53125 -0.71875,-0.75 v -3.578125 l 0.109375,0.125 3.125,4.34375 C 4.734375,0 4.765625,0 4.828125,0 4.96875,0 4.96875,-0.0625 4.96875,-0.265625 v -3.84375 c 0,-0.234375 0,-0.765625 0.71875,-0.765625 v -0.25 c -0.21875,0.015625 -0.65625,0.03125 -0.859375,0.03125 -0.15625,0 -0.609375,-0.015625 -0.859375,-0.03125 v 0.25 c 0.71875,0 0.71875,0.53125 0.71875,0.765625 v 2.953125 z m 0,0"
                 id="id-439e7fe5-044d-4e6c-9fbb-f2b5cee3786c" />
            </g>
            <g
               transform="translate(168.986,134.765)"
               id="g2055">
              <path
                 style="stroke:none;stroke-width:0"
                 d="M 5.390625,-5.0625 H 0.5 L 0.359375,-3.375 h 0.25 C 0.703125,-4.640625 0.890625,-4.8125 2,-4.8125 c 0.5625,0 0.59375,0 0.59375,0.421875 V -0.75 c 0,0.390625 -0.046875,0.5 -0.8125,0.5 H 1.578125 V 0 c 0.390625,-0.03125 0.96875,-0.03125 1.375,-0.03125 0.390625,0 0.984375,0 1.375,0.03125 V -0.25 H 4.109375 C 3.34375,-0.25 3.3125,-0.359375 3.3125,-0.75 v -3.640625 c 0,-0.421875 0.03125,-0.421875 0.578125,-0.421875 1.078125,0 1.296875,0.171875 1.390625,1.4375 h 0.25 z m 0,0"
                 id="id-e74d53fd-78ad-4743-819c-852cf854995f" />
            </g>
            <g
               transform="translate(174.875,134.765)"
               id="g2058">
              <path
                 style="stroke:none;stroke-width:0"
                 d="M 1.859375,-4.453125 C 1.859375,-4.6875 1.875,-4.796875 1.96875,-4.84375 2.046875,-4.875 2.3125,-4.875 2.5,-4.875 c 0.734375,0 1.578125,0.03125 1.578125,1.09375 0,0.390625 -0.046875,1.109375 -1.34375,1.109375 h -0.875 z M 3.625,-2.546875 c 0.6875,-0.171875 1.3125,-0.625 1.3125,-1.234375 0,-0.6875 -0.890625,-1.34375 -2.09375,-1.34375 H 0.453125 v 0.25 c 0.65625,0 0.71875,0.0625 0.71875,0.46875 v 3.6875 c 0,0.40625 -0.0625,0.46875 -0.71875,0.46875 V 0 C 0.75,-0.015625 1.21875,-0.03125 1.5,-0.03125 c 0.296875,0 0.8125,0.015625 1.078125,0.03125 v -0.25 c -0.671875,0 -0.71875,-0.0625 -0.71875,-0.46875 V -2.453125 H 2.75 c 0.25,0 0.515625,0.015625 0.8125,0.3125 0.21875,0.234375 0.21875,0.46875 0.21875,0.90625 0,0.5625 0,0.734375 0.3125,1.046875 0.1875,0.171875 0.578125,0.328125 1.03125,0.328125 0.640625,0 0.78125,-0.625 0.78125,-0.8125 0,-0.0625 0,-0.15625 -0.125,-0.15625 -0.109375,0 -0.125,0.09375 -0.125,0.125 -0.0625,0.609375 -0.421875,0.625 -0.5,0.625 -0.1875,0 -0.28125,-0.125 -0.34375,-0.234375 C 4.734375,-0.484375 4.671875,-0.75 4.546875,-1.390625 4.46875,-1.75 4.359375,-2.25 3.625,-2.546875 Z m 0,0"
                 id="id-7f07b5e3-21a7-4b66-a83a-23897948cb83" />
            </g>
            <g
               transform="translate(180.874,134.765)"
               id="g2061">
              <path
                 style="stroke:none;stroke-width:0"
                 d="m 3.28125,-5.078125 c -0.0625,-0.15625 -0.109375,-0.21875 -0.21875,-0.21875 -0.140625,0 -0.15625,0.0625 -0.21875,0.1875 L 1.25,-0.984375 C 1.140625,-0.71875 0.96875,-0.265625 0.34375,-0.25 V 0 c 0.21875,-0.015625 0.5,-0.03125 0.71875,-0.03125 0.171875,0 0.625,0.015625 0.828125,0.03125 v -0.25 c -0.421875,-0.015625 -0.4375,-0.359375 -0.4375,-0.453125 0,-0.078125 0,-0.09375 0.328125,-0.984375 h 2.0625 L 4.0625,-1.125 c 0.078125,0.203125 0.21875,0.53125 0.21875,0.59375 C 4.28125,-0.25 3.921875,-0.25 3.75,-0.25 V 0 c 0.265625,-0.015625 0.859375,-0.03125 1.0625,-0.03125 0.328125,0 0.71875,0.015625 0.953125,0.03125 V -0.25 C 5.21875,-0.25 5.125,-0.296875 5,-0.640625 Z M 3.75,-1.9375 H 1.890625 l 0.9375,-2.40625 z m 0,0"
                 id="id-c3fbb021-dbcf-48b3-b42a-eacfb172316a" />
            </g>
            <g
               transform="translate(186.984,134.765)"
               id="g2064">
              <path
                 style="stroke:none;stroke-width:0"
                 d="m 1.171875,-0.71875 c 0,0.40625 -0.0625,0.46875 -0.71875,0.46875 V 0 H 3.25 C 4.65625,0 5.71875,-1.15625 5.71875,-2.515625 5.71875,-3.890625 4.6875,-5.125 3.25,-5.125 H 0.453125 v 0.25 c 0.65625,0 0.71875,0.0625 0.71875,0.46875 z M 2.25,-0.25 c -0.34375,0 -0.390625,-0.03125 -0.390625,-0.421875 v -3.78125 C 1.859375,-4.84375 1.90625,-4.875 2.25,-4.875 h 0.765625 c 0.859375,0 1.296875,0.46875 1.4375,0.640625 0.21875,0.28125 0.4375,0.703125 0.4375,1.71875 0,0.8125 -0.15625,1.234375 -0.359375,1.546875 C 4.359375,-0.75 3.9375,-0.25 3.015625,-0.25 Z m 0,0"
                 id="id-50bb3174-6988-45bc-be0a-3c4faaff6f82" />
            </g>
            <g
               transform="translate(193.205,134.765)"
               id="g2067">
              <path
                 style="stroke:none;stroke-width:0"
                 d="M 1.859375,-4.390625 C 1.859375,-4.828125 1.90625,-4.875 2.625,-4.875 v -0.25 c -0.34375,0.015625 -0.859375,0.03125 -1.125,0.03125 -0.25,0 -0.765625,-0.015625 -1.109375,-0.03125 v 0.25 c 0.703125,0 0.75,0.046875 0.75,0.484375 v 3.65625 c 0,0.4375 -0.046875,0.484375 -0.75,0.484375 V 0 C 0.734375,-0.015625 1.25,-0.03125 1.5,-0.03125 c 0.265625,0 0.78125,0.015625 1.125,0.03125 v -0.25 c -0.71875,0 -0.765625,-0.046875 -0.765625,-0.484375 z m 0,0"
                 id="id-aa1cd475-b41a-47e5-aa62-ce9b6e80b163" />
            </g>
            <g
               transform="translate(196.216,134.765)"
               id="g2070">
              <path
                 style="stroke:none;stroke-width:0"
                 d="m 4.75,-4.640625 c -0.21875,-0.21875 -0.703125,-0.625 -1.453125,-0.625 -1.5,0 -2.78125,1.1875 -2.78125,2.703125 0,1.515625 1.28125,2.703125 2.78125,2.703125 1.296875,0 2.09375,-1.03125 2.09375,-1.90625 0,-0.09375 0,-0.15625 -0.140625,-0.15625 -0.109375,0 -0.109375,0.0625 -0.109375,0.15625 -0.078125,1.0625 -0.9375,1.65625 -1.765625,1.65625 -0.5,0 -2.015625,-0.265625 -2.015625,-2.453125 0,-2.21875 1.546875,-2.453125 2,-2.453125 0.734375,0 1.578125,0.515625 1.765625,1.78125 0.015625,0.078125 0.03125,0.140625 0.125,0.140625 0.140625,0 0.140625,-0.0625 0.140625,-0.25 v -1.6875 c 0,-0.15625 0,-0.234375 -0.109375,-0.234375 -0.0625,0 -0.0625,0.015625 -0.140625,0.125 z m 0,0"
                 id="id-056bd8b7-900c-4875-b49c-1f14d6e2fb52" />
            </g>
            <g
               transform="translate(202.105,134.765)"
               id="g2073">
              <path
                 style="stroke:none;stroke-width:0"
                 d="M 5.390625,-5.0625 H 0.5 L 0.359375,-3.375 h 0.25 C 0.703125,-4.640625 0.890625,-4.8125 2,-4.8125 c 0.5625,0 0.59375,0 0.59375,0.421875 V -0.75 c 0,0.390625 -0.046875,0.5 -0.8125,0.5 H 1.578125 V 0 c 0.390625,-0.03125 0.96875,-0.03125 1.375,-0.03125 0.390625,0 0.984375,0 1.375,0.03125 V -0.25 H 4.109375 C 3.34375,-0.25 3.3125,-0.359375 3.3125,-0.75 v -3.640625 c 0,-0.421875 0.03125,-0.421875 0.578125,-0.421875 1.078125,0 1.296875,0.171875 1.390625,1.4375 h 0.25 z m 0,0"
                 id="id-388f6fac-08ea-4049-9681-7b1eda1514ba" />
            </g>
            <g
               transform="translate(207.993,134.765)"
               id="g2076">
              <path
                 style="stroke:none;stroke-width:0"
                 d="M 1.859375,-4.390625 C 1.859375,-4.828125 1.90625,-4.875 2.625,-4.875 v -0.25 c -0.34375,0.015625 -0.859375,0.03125 -1.125,0.03125 -0.25,0 -0.765625,-0.015625 -1.109375,-0.03125 v 0.25 c 0.703125,0 0.75,0.046875 0.75,0.484375 v 3.65625 c 0,0.4375 -0.046875,0.484375 -0.75,0.484375 V 0 C 0.734375,-0.015625 1.25,-0.03125 1.5,-0.03125 c 0.265625,0 0.78125,0.015625 1.125,0.03125 v -0.25 c -0.71875,0 -0.765625,-0.046875 -0.765625,-0.484375 z m 0,0"
                 id="id-204e4df2-5e28-4976-8290-d77092fbb1c0" />
            </g>
            <g
               transform="translate(211.004,134.765)"
               id="g2079">
              <path
                 style="stroke:none;stroke-width:0"
                 d="m 5.828125,-2.546875 c 0,-1.484375 -1.1875,-2.71875 -2.65625,-2.71875 -1.484375,0 -2.65625,1.234375 -2.65625,2.71875 0,1.515625 1.203125,2.6875 2.65625,2.6875 1.453125,0 2.65625,-1.171875 2.65625,-2.6875 z M 3.171875,-0.125 c -0.703125,0 -1.8125,-0.5625 -1.8125,-2.53125 0,-1.875 1.140625,-2.359375 1.8125,-2.359375 0.671875,0 1.796875,0.5 1.796875,2.359375 0,1.96875 -1.09375,2.53125 -1.796875,2.53125 z m 0,0"
                 id="id-63e4307d-fbf1-4024-a4b9-ccba4145c720" />
            </g>
            <g
               transform="translate(217.336,134.765)"
               id="g2082">
              <path
                 style="stroke:none;stroke-width:0"
                 d="M 1.921875,-5 C 1.828125,-5.125 1.8125,-5.125 1.625,-5.125 H 0.421875 v 0.25 c 0.25,0 0.53125,0 0.71875,0.0625 V -1 c 0,0.21875 0,0.75 -0.71875,0.75 V 0 c 0.21875,-0.015625 0.671875,-0.03125 0.859375,-0.03125 0.15625,0 0.609375,0.015625 0.859375,0.03125 v -0.25 c -0.71875,0 -0.71875,-0.53125 -0.71875,-0.75 v -3.578125 l 0.109375,0.125 3.125,4.34375 C 4.734375,0 4.765625,0 4.828125,0 4.96875,0 4.96875,-0.0625 4.96875,-0.265625 v -3.84375 c 0,-0.234375 0,-0.765625 0.71875,-0.765625 v -0.25 c -0.21875,0.015625 -0.65625,0.03125 -0.859375,0.03125 -0.15625,0 -0.609375,-0.015625 -0.859375,-0.03125 v 0.25 c 0.71875,0 0.71875,0.53125 0.71875,0.765625 v 2.953125 z m 0,0"
                 id="id-5e1797d9-93ac-47ff-b4ca-184c694fd5fb" />
            </g>
            <g
               transform="translate(223.446,134.765)"
               id="g2085">
              <path
                 style="stroke:none;stroke-width:0"
                 d="m 1.453125,-2.09375 c 0,0.15625 0.015625,0.234375 0.125,0.234375 0.109375,0 0.140625,-0.046875 0.140625,-0.21875 L 2.109375,-6.625 c 0,-0.328125 -0.265625,-0.515625 -0.53125,-0.515625 -0.25,0 -0.515625,0.1875 -0.515625,0.515625 z m 0.65625,1.5625 c 0,-0.28125 -0.234375,-0.53125 -0.53125,-0.53125 -0.28125,0 -0.515625,0.25 -0.515625,0.53125 C 1.0625,-0.234375 1.296875,0 1.578125,0 1.875,0 2.109375,-0.234375 2.109375,-0.53125 Z m 0,0"
                 id="id-d6d96147-6ef1-4e9c-b5b5-5ad457c6ad19" />
            </g>
          </g>
        </g>
      </g>
    </g>
  </g>
</svg>
