<?xml version="1.0" encoding="UTF-8" standalone="no"?>
<svg
   xmlns:ns1="http://www.iki.fi/pav/software/textext/"
   xmlns:dc="http://purl.org/dc/elements/1.1/"
   xmlns:cc="http://creativecommons.org/ns#"
   xmlns:rdf="http://www.w3.org/1999/02/22-rdf-syntax-ns#"
   xmlns:svg="http://www.w3.org/2000/svg"
   xmlns="http://www.w3.org/2000/svg"
   xmlns:sodipodi="http://sodipodi.sourceforge.net/DTD/sodipodi-0.dtd"
   xmlns:inkscape="http://www.inkscape.org/namespaces/inkscape"
   sodipodi:docname="Rab.svg"
   id="svg8"
   version="1.1"
   viewBox="0 0 88.9 50.8"
   height="2in"
   width="3.5in"
   inkscape:version="1.0.2 (e86c8708, 2021-01-15)">
  <defs
     id="defs2">
    <marker
       style="overflow:visible;"
       id="Arrow2Mend"
       refX="0.0"
       refY="0.0"
       orient="auto"
       inkscape:stockid="Arrow2Mend"
       inkscape:isstock="true">
      <path
         transform="scale(0.6) rotate(180) translate(0,0)"
         d="M 8.7185878,4.0337352 L -2.2072895,0.016013256 L 8.7185884,-4.0017078 C 6.9730900,-1.6296469 6.9831476,1.6157441 8.7185878,4.0337352 z "
         style="fill-rule:evenodd;stroke-width:0.625;stroke-linejoin:round;stroke:#000000;stroke-opacity:1;fill:#000000;fill-opacity:1"
         id="path890" />
    </marker>
    <marker
       style="overflow:visible;"
       id="Arrow1Lend"
       refX="0.0"
       refY="0.0"
       orient="auto"
       inkscape:stockid="Arrow1Lend"
       inkscape:isstock="true">
      <path
         transform="scale(0.8) rotate(180) translate(12.5,0)"
         style="fill-rule:evenodd;stroke:#000000;stroke-width:1pt;stroke-opacity:1;fill:#000000;fill-opacity:1"
         d="M 0.0,0.0 L 5.0,-5.0 L -12.5,0.0 L 5.0,5.0 L 0.0,0.0 z "
         id="path866" />
    </marker>
  </defs>
  <sodipodi:namedview
     id="base"
     pagecolor="#ffffff"
     bordercolor="#666666"
     borderopacity="1.0"
     inkscape:pageopacity="0.0"
     inkscape:pageshadow="2"
     inkscape:zoom="1.9009322"
     inkscape:cx="168.58683"
     inkscape:cy="69.949802"
     inkscape:document-units="mm"
     inkscape:current-layer="layer1"
     inkscape:document-rotation="0"
     showgrid="false"
     units="in"
     inkscape:window-width="1252"
     inkscape:window-height="803"
     inkscape:window-x="0"
     inkscape:window-y="23"
     inkscape:window-maximized="0" />
  <metadata
     id="metadata5">
    <rdf:RDF>
      <cc:Work
         rdf:about="">
        <dc:format>image/svg+xml</dc:format>
        <dc:type
           rdf:resource="http://purl.org/dc/dcmitype/StillImage" />
        <dc:title></dc:title>
      </cc:Work>
    </rdf:RDF>
  </metadata>
  <g
     inkscape:label="Layer 1"
     inkscape:groupmode="layer"
     id="layer1">
    <circle
       style="fill:none;fill-opacity:0.81;stroke:#000000;stroke-width:0.35277778;paint-order:markers stroke fill;stop-color:#000000;stroke-miterlimit:4;stroke-dasharray:none"
       id="path34"
       cx="17.11989"
       cy="25.4"
       r="12.665935" />
    <circle
       style="fill:none;fill-opacity:0.81;stroke:#000000;stroke-width:0.35277778;paint-order:markers stroke fill;stop-color:#000000;stroke-miterlimit:4;stroke-dasharray:none"
       id="circle36"
       cx="69.175468"
       cy="25.4"
       r="12.665935" />
    <path
       style="fill:none;stroke:#000000;stroke-width:0.35277778;stroke-linecap:butt;stroke-linejoin:miter;stroke-opacity:1;stroke-miterlimit:4;stroke-dasharray:none;marker-end:url(#Arrow2Mend)"
       d="M 30.064196,26.027799 H 56.370367"
       id="path38" />
    <g
       transform="matrix(0.646019,0,0,0.646019,39.47045,19.994425)"
       ns1:version="1.3.0"
       ns1:texconverter="pdflatex"
       ns1:pdfconverter="inkscape"
       ns1:text="$\\mathcal{R}$"
       ns1:preamble="/Users/meiroseconnor/Library/Application Support/org.inkscape.Inkscape/config/inkscape/extensions/textext/default_packages.tex"
       ns1:scale="1.8312341973160358"
       ns1:alignment="middle center"
       ns1:jacobian_sqrt="0.646019"
       id="g1447">
      <defs
         id="id-3297b749-536c-4eec-a2db-a291aca8d364">
        <g
           id="id-76557aa5-5fd7-4be6-88de-538dd979d9bd">
          <symbol
             overflow="visible"
             id="id-6db08486-e2df-4f8f-8d3b-3aa40b3d2b6f">
            <path
               style="stroke:none;stroke-width:0"
               d=""
               id="id-eceb6a2b-c672-43d6-8e69-8cffafe8d596" />
          </symbol>
          <symbol
             overflow="visible"
             id="id-47a98f07-1c3b-4690-a51b-51738688f897">
            <path
               style="stroke:none;stroke-width:0"
               d="m 4.03125,-6.265625 c 1.921875,0 2.421875,0.46875 2.421875,1.125 0,0.609375 -0.484375,1.8125 -2.125,1.875 C 3.84375,-3.25 3.5,-2.90625 3.5,-2.796875 c 0,0.0625 0.03125,0.0625 0.046875,0.0625 0.421875,0.078125 0.625,0.265625 1.140625,1.453125 0.453125,1.046875 0.71875,1.5 1.296875,1.5 1.21875,0 2.359375,-1.21875 2.359375,-1.4375 0,-0.078125 -0.078125,-0.078125 -0.109375,-0.078125 -0.125,0 -0.515625,0.140625 -0.71875,0.421875 -0.15625,0.234375 -0.375,0.546875 -0.859375,0.546875 -0.515625,0 -0.828125,-0.703125 -1.15625,-1.484375 -0.21875,-0.5 -0.390625,-0.875 -0.625,-1.140625 1.4375,-0.53125 2.421875,-1.578125 2.421875,-2.609375 0,-1.25 -1.671875,-1.25 -3.1875,-1.25 -0.984375,0 -1.546875,0 -2.390625,0.359375 -1.328125,0.59375 -1.515625,1.421875 -1.515625,1.5 0,0.0625 0.046875,0.078125 0.109375,0.078125 0.15625,0 0.390625,-0.140625 0.46875,-0.1875 0.203125,-0.140625 0.234375,-0.203125 0.296875,-0.390625 0.140625,-0.40625 0.421875,-0.75 1.671875,-0.8125 -0.046875,0.609375 -0.140625,1.546875 -0.484375,3 C 2,-2.15625 1.640625,-1.0625 1.203125,0.015625 c -0.0625,0.109375 -0.0625,0.125 -0.0625,0.140625 0,0.0625 0.078125,0.0625 0.109375,0.0625 0.203125,0 0.609375,-0.234375 0.71875,-0.421875 0.03125,-0.0625 1.296875,-2.875 1.59375,-6.0625 z m 0,0"
               id="id-5ae20a58-44e4-4689-9aaf-d8cb0f0d7352" />
          </symbol>
        </g>
      </defs>
      <g
         id="id-57fced26-8689-441e-971c-ef50909312ed"
         transform="translate(-148.915,-127.953)">
        <g
           style="fill:#000000;fill-opacity:1"
           id="id-2ae64857-c5d7-45af-991b-08c16828677c">
          <g
             transform="translate(148.712,134.765)"
             id="g1443">
            <path
               style="stroke:none;stroke-width:0"
               d="m 4.03125,-6.265625 c 1.921875,0 2.421875,0.46875 2.421875,1.125 0,0.609375 -0.484375,1.8125 -2.125,1.875 C 3.84375,-3.25 3.5,-2.90625 3.5,-2.796875 c 0,0.0625 0.03125,0.0625 0.046875,0.0625 0.421875,0.078125 0.625,0.265625 1.140625,1.453125 0.453125,1.046875 0.71875,1.5 1.296875,1.5 1.21875,0 2.359375,-1.21875 2.359375,-1.4375 0,-0.078125 -0.078125,-0.078125 -0.109375,-0.078125 -0.125,0 -0.515625,0.140625 -0.71875,0.421875 -0.15625,0.234375 -0.375,0.546875 -0.859375,0.546875 -0.515625,0 -0.828125,-0.703125 -1.15625,-1.484375 -0.21875,-0.5 -0.390625,-0.875 -0.625,-1.140625 1.4375,-0.53125 2.421875,-1.578125 2.421875,-2.609375 0,-1.25 -1.671875,-1.25 -3.1875,-1.25 -0.984375,0 -1.546875,0 -2.390625,0.359375 -1.328125,0.59375 -1.515625,1.421875 -1.515625,1.5 0,0.0625 0.046875,0.078125 0.109375,0.078125 0.15625,0 0.390625,-0.140625 0.46875,-0.1875 0.203125,-0.140625 0.234375,-0.203125 0.296875,-0.390625 0.140625,-0.40625 0.421875,-0.75 1.671875,-0.8125 -0.046875,0.609375 -0.140625,1.546875 -0.484375,3 C 2,-2.15625 1.640625,-1.0625 1.203125,0.015625 c -0.0625,0.109375 -0.0625,0.125 -0.0625,0.140625 0,0.0625 0.078125,0.0625 0.109375,0.0625 0.203125,0 0.609375,-0.234375 0.71875,-0.421875 0.03125,-0.0625 1.296875,-2.875 1.59375,-6.0625 z m 0,0"
               id="id-b2529e26-71e6-4bbd-86be-522b66f24fc0" />
          </g>
        </g>
      </g>
    </g>
    <g
       transform="matrix(0.646019,0,0,0.646019,15.312894,40.014706)"
       ns1:version="1.3.0"
       ns1:texconverter="pdflatex"
       ns1:pdfconverter="inkscape"
       ns1:text="$\\alpha$"
       ns1:preamble="/Users/meiroseconnor/Library/Application Support/org.inkscape.Inkscape/config/inkscape/extensions/textext/default_packages.tex"
       ns1:scale="1.8312341973160358"
       ns1:alignment="middle center"
       ns1:jacobian_sqrt="0.646019"
       id="g1494">
      <defs
         id="id-ff65bfce-fb61-4a18-936f-fa9ef028da75">
        <g
           id="id-17a5de84-5a45-4f4b-a8f2-dbe5bfb486ce">
          <symbol
             overflow="visible"
             id="id-8c39de80-ff06-4811-b843-286c4572a41f">
            <path
               style="stroke:none;stroke-width:0"
               d=""
               id="id-b4b91bfa-cc86-4415-9b67-d302f9d5efca" />
          </symbol>
          <symbol
             overflow="visible"
             id="id-eaedb14a-0b53-481f-9c23-fe9d0538cc56">
            <path
               style="stroke:none;stroke-width:0"
               d="m 4.75,-2.359375 c 0,-1.5625 -0.921875,-2.046875 -1.65625,-2.046875 -1.375,0 -2.6875,1.421875 -2.6875,2.828125 0,0.9375 0.59375,1.6875 1.625,1.6875 0.625,0 1.34375,-0.234375 2.09375,-0.84375 0.125,0.53125 0.453125,0.84375 0.90625,0.84375 0.53125,0 0.84375,-0.546875 0.84375,-0.703125 0,-0.078125 -0.0625,-0.109375 -0.125,-0.109375 -0.0625,0 -0.09375,0.03125 -0.125,0.109375 -0.1875,0.484375 -0.546875,0.484375 -0.5625,0.484375 -0.3125,0 -0.3125,-0.78125 -0.3125,-1.015625 0,-0.203125 0,-0.234375 0.109375,-0.34375 C 5.796875,-2.65625 6,-3.8125 6,-3.8125 6,-3.84375 5.984375,-3.921875 5.875,-3.921875 c -0.09375,0 -0.09375,0.03125 -0.140625,0.21875 -0.1875,0.625 -0.515625,1.375 -0.984375,1.96875 z m -0.65625,1.375 c -0.890625,0.765625 -1.65625,0.875 -2.046875,0.875 -0.59375,0 -0.90625,-0.453125 -0.90625,-1.09375 0,-0.484375 0.265625,-1.5625 0.578125,-2.0625 C 2.1875,-4 2.734375,-4.1875 3.078125,-4.1875 c 0.984375,0 0.984375,1.3125 0.984375,2.078125 0,0.375 0,0.953125 0.03125,1.125 z m 0,0"
               id="id-876982fb-64ad-4eb7-becb-97474bf1b5f7" />
          </symbol>
        </g>
      </defs>
      <g
         id="id-bb5ce4b5-139d-423e-bc80-2f1538859931"
         transform="translate(-149.118,-130.359)">
        <g
           style="fill:#000000;fill-opacity:1"
           id="id-7da25328-504d-4a09-a3a8-1605365d376d">
          <g
             transform="translate(148.712,134.765)"
             id="g1490">
            <path
               style="stroke:none;stroke-width:0"
               d="m 4.75,-2.359375 c 0,-1.5625 -0.921875,-2.046875 -1.65625,-2.046875 -1.375,0 -2.6875,1.421875 -2.6875,2.828125 0,0.9375 0.59375,1.6875 1.625,1.6875 0.625,0 1.34375,-0.234375 2.09375,-0.84375 0.125,0.53125 0.453125,0.84375 0.90625,0.84375 0.53125,0 0.84375,-0.546875 0.84375,-0.703125 0,-0.078125 -0.0625,-0.109375 -0.125,-0.109375 -0.0625,0 -0.09375,0.03125 -0.125,0.109375 -0.1875,0.484375 -0.546875,0.484375 -0.5625,0.484375 -0.3125,0 -0.3125,-0.78125 -0.3125,-1.015625 0,-0.203125 0,-0.234375 0.109375,-0.34375 C 5.796875,-2.65625 6,-3.8125 6,-3.8125 6,-3.84375 5.984375,-3.921875 5.875,-3.921875 c -0.09375,0 -0.09375,0.03125 -0.140625,0.21875 -0.1875,0.625 -0.515625,1.375 -0.984375,1.96875 z m -0.65625,1.375 c -0.890625,0.765625 -1.65625,0.875 -2.046875,0.875 -0.59375,0 -0.90625,-0.453125 -0.90625,-1.09375 0,-0.484375 0.265625,-1.5625 0.578125,-2.0625 C 2.1875,-4 2.734375,-4.1875 3.078125,-4.1875 c 0.984375,0 0.984375,1.3125 0.984375,2.078125 0,0.375 0,0.953125 0.03125,1.125 z m 0,0"
               id="id-69b459a2-a7e0-4915-8866-854119c7292e" />
          </g>
        </g>
      </g>
    </g>
    <g
       transform="matrix(0.646019,0,0,0.646019,67.419185,39.662217)"
       ns1:version="1.3.0"
       ns1:texconverter="pdflatex"
       ns1:pdfconverter="inkscape"
       ns1:text="$\\beta$"
       ns1:preamble="/Users/meiroseconnor/Library/Application Support/org.inkscape.Inkscape/config/inkscape/extensions/textext/default_packages.tex"
       ns1:scale="1.8312341973160358"
       ns1:alignment="middle center"
       ns1:jacobian_sqrt="0.646019"
       id="g1552">
      <defs
         id="id-bdd90628-6b70-4261-b8fc-ba408eb6ece1">
        <g
           id="id-5161ecb5-10bf-4bf1-a93e-f87383101029">
          <symbol
             overflow="visible"
             id="id-47f4d0a1-742e-4fe4-95d9-486b7023ca38">
            <path
               style="stroke:none;stroke-width:0"
               d=""
               id="id-26fb03b2-e0c5-4fa5-b764-c80758d5f646" />
          </symbol>
          <symbol
             overflow="visible"
             id="id-5c255e45-087c-4d64-9786-473e433ebc67">
            <path
               style="stroke:none;stroke-width:0"
               d="m 5.734375,-5.671875 c 0,-0.75 -0.546875,-1.359375 -1.359375,-1.359375 -0.578125,0 -0.859375,0.15625 -1.203125,0.40625 C 2.625,-6.21875 2.078125,-5.25 1.890625,-4.5 L 0.296875,1.828125 C 0.296875,1.875 0.34375,1.9375 0.421875,1.9375 0.5,1.9375 0.53125,1.90625 0.53125,1.890625 L 1.234375,-0.875 c 0.1875,0.609375 0.625,0.96875 1.359375,0.96875 C 3.3125,0.09375 4.0625,-0.25 4.515625,-0.6875 5,-1.140625 5.3125,-1.78125 5.3125,-2.515625 c 0,-0.71875 -0.375,-1.25 -0.734375,-1.484375 0.578125,-0.34375 1.15625,-0.953125 1.15625,-1.671875 z M 3.9375,-4.015625 c -0.125,0.046875 -0.234375,0.0625 -0.484375,0.0625 -0.140625,0 -0.328125,0.015625 -0.4375,-0.03125 0.03125,-0.109375 0.390625,-0.078125 0.5,-0.078125 0.203125,0 0.296875,0 0.421875,0.046875 z M 5.171875,-5.90625 c 0,0.703125 -0.375,1.421875 -0.890625,1.734375 C 4,-4.28125 3.8125,-4.296875 3.515625,-4.296875 c -0.21875,0 -0.78125,-0.015625 -0.78125,0.3125 0,0.28125 0.515625,0.25 0.6875,0.25 0.375,0 0.53125,0 0.828125,-0.125 0.375,0.359375 0.421875,0.671875 0.4375,1.125 0.015625,0.578125 -0.21875,1.328125 -0.5,1.71875 C 3.796875,-0.484375 3.125,-0.125 2.5625,-0.125 c -0.765625,0 -1.140625,-0.578125 -1.140625,-1.28125 0,-0.09375 0,-0.25 0.046875,-0.4375 L 2.109375,-4.359375 C 2.328125,-5.21875 3.046875,-6.8125 4.25,-6.8125 c 0.578125,0 0.921875,0.3125 0.921875,0.90625 z m 0,0"
               id="id-3e41b014-552e-49ea-9dcd-26961419ea16" />
          </symbol>
        </g>
      </defs>
      <g
         id="id-cc415859-c80d-4d32-aa1a-d8290b0aad1a"
         transform="translate(-149.009,-127.734)">
        <g
           style="fill:#000000;fill-opacity:1"
           id="id-6a60c08d-c3ba-4d98-ac46-442c75f87c1e">
          <g
             transform="translate(148.712,134.765)"
             id="g1548">
            <path
               style="stroke:none;stroke-width:0"
               d="m 5.734375,-5.671875 c 0,-0.75 -0.546875,-1.359375 -1.359375,-1.359375 -0.578125,0 -0.859375,0.15625 -1.203125,0.40625 C 2.625,-6.21875 2.078125,-5.25 1.890625,-4.5 L 0.296875,1.828125 C 0.296875,1.875 0.34375,1.9375 0.421875,1.9375 0.5,1.9375 0.53125,1.90625 0.53125,1.890625 L 1.234375,-0.875 c 0.1875,0.609375 0.625,0.96875 1.359375,0.96875 C 3.3125,0.09375 4.0625,-0.25 4.515625,-0.6875 5,-1.140625 5.3125,-1.78125 5.3125,-2.515625 c 0,-0.71875 -0.375,-1.25 -0.734375,-1.484375 0.578125,-0.34375 1.15625,-0.953125 1.15625,-1.671875 z M 3.9375,-4.015625 c -0.125,0.046875 -0.234375,0.0625 -0.484375,0.0625 -0.140625,0 -0.328125,0.015625 -0.4375,-0.03125 0.03125,-0.109375 0.390625,-0.078125 0.5,-0.078125 0.203125,0 0.296875,0 0.421875,0.046875 z M 5.171875,-5.90625 c 0,0.703125 -0.375,1.421875 -0.890625,1.734375 C 4,-4.28125 3.8125,-4.296875 3.515625,-4.296875 c -0.21875,0 -0.78125,-0.015625 -0.78125,0.3125 0,0.28125 0.515625,0.25 0.6875,0.25 0.375,0 0.53125,0 0.828125,-0.125 0.375,0.359375 0.421875,0.671875 0.4375,1.125 0.015625,0.578125 -0.21875,1.328125 -0.5,1.71875 C 3.796875,-0.484375 3.125,-0.125 2.5625,-0.125 c -0.765625,0 -1.140625,-0.578125 -1.140625,-1.28125 0,-0.09375 0,-0.25 0.046875,-0.4375 L 2.109375,-4.359375 C 2.328125,-5.21875 3.046875,-6.8125 4.25,-6.8125 c 0.578125,0 0.921875,0.3125 0.921875,0.90625 z m 0,0"
               id="id-fc2d5560-35ed-4665-afce-5c7332a8362f" />
          </g>
        </g>
      </g>
    </g>
  </g>
</svg>
